<?xml version="1.0" encoding="utf-8"?>
<!-- Generator: Adobe Illustrator 21.0.2, SVG Export Plug-In . SVG Version: 6.00 Build 0)  -->
<svg version="1.1"
	 id="svg277802" xmlns:cc="http://creativecommons.org/ns#" xmlns:dc="http://purl.org/dc/elements/1.1/" xmlns:rdf="http://www.w3.org/1999/02/22-rdf-syntax-ns#" xmlns:svg="http://www.w3.org/2000/svg"
	 xmlns="http://www.w3.org/2000/svg" xmlns:xlink="http://www.w3.org/1999/xlink" x="0px" y="0px" viewBox="0 0 450.5 111.4"
	 style="enable-background:new 0 0 450.5 111.4;" xml:space="preserve">
<style type="text/css">
	.st0{fill:#E87826;}
</style>
<g id="logo-group">
	<g id="logo-center">
		<g id="title">
			<path id="path277810" class="st0" d="M44.2,74c-5.3,0-9.4,0.9-12.4,2.7S27,81,26.3,84.5c-0.7,3.2-0.1,5.7,1.7,7.5
				c1.8,1.8,4.6,2.7,8.4,2.7c4.7,0,9-1.7,12.9-5.1c3.9-3.4,6.4-7.7,7.5-12.8l0.6-2.9H44.2z M84.6,64.5l-9,44.9H50.2l2.3-11.7
				c-4.3,4.8-8.8,8.3-13.5,10.5c-4.6,2.2-10,3.2-16,3.2c-8.2,0-14.3-2.4-18.4-7.1c-4.1-4.8-5.4-11-3.9-18.6
				c1.9-9.2,6.4-16,13.6-20.3c7.2-4.3,17.6-6.5,31.2-6.5h14.8l0.4-2c0.8-4-0.2-6.9-3-8.7c-2.8-1.9-7.5-2.8-14.1-2.8
				c-5.4,0-10.5,0.5-15.4,1.6c-4.8,1.1-9.5,2.7-13.9,4.9l3.9-19.2c5.7-1.3,11.3-2.3,16.8-3c5.6-0.7,11.1-1.1,16.5-1.1
				c14.2,0,23.9,2.8,29.1,8.4C85.7,42.8,87.1,51.9,84.6,64.5z"/>
			<path id="path277812" class="st0" d="M137,0h25.2l-21.9,109.4h-25.2L137,0z"/>
			<path id="path277814" class="st0" d="M267.2,69.8l-1.5,7.2h-58.9c-0.6,5.9,0.7,10.3,3.7,13.3c3.1,3,7.9,4.4,14.5,4.4
				c5.3,0,10.9-0.8,16.7-2.3c5.9-1.6,12-4,18.6-7.2l-3.9,19.4c-6.4,2.3-12.7,3.9-18.9,5.1c-6.2,1.2-12.3,1.8-18.2,1.8
				c-14.3,0-24.6-3.6-31.1-10.8c-6.4-7.3-8.3-17.4-5.7-30.5c2.6-12.8,8.5-22.9,17.6-30.3c9.2-7.4,20.6-11,34.2-11
				c12.4,0,21.5,3.7,27.5,11.2S269.6,57.4,267.2,69.8z M242.9,61.5c1-4.8,0.4-8.6-1.8-11.5c-2.2-3-5.6-4.4-10.1-4.4
				c-4.9,0-9.1,1.4-12.7,4.1c-3.6,2.7-6.3,6.7-8.1,11.8H242.9z"/>
			<path id="path277816" class="st0" d="M364.2,52.1c-2-1-4.1-1.8-6.1-2.3c-2.1-0.5-4.2-0.8-6.4-0.8c-6.5,0-11.9,2.1-16.2,6.3
				c-4.3,4.1-7.2,10.1-8.8,17.8l-7.2,36.3h-25.2L310,30.7h25.2l-2.6,12.9c4.3-5.2,8.7-8.9,13.4-11.3c4.7-2.4,10-3.6,15.8-3.6
				c0.8,0,1.8,0,2.7,0.1c1,0,2.4,0.2,4.2,0.4L364.2,52.1z"/>
			<path id="path277818" class="st0" d="M429.1,8.3l-4.5,22.4h25.9l-3.6,18H421l-6.7,33.4c-0.8,3.7-0.5,6.1,0.6,7.5
				c1.2,1.3,4,1.9,8.3,1.9h12.9l-3.6,18H411c-9.9,0-16.6-2.1-19.9-6.2c-3.3-4.2-4-11.2-2-21.2l6.7-33.4h-12.5l3.6-18h12.5l4.5-22.4
				H429.1z"/>
		</g>
		<g id="tagline">
		</g>
	</g>
</g>
</svg>
