<?xml version="1.0" encoding="utf-8"?>
<!-- Generator: Adobe Illustrator 21.0.2, SVG Export Plug-In . SVG Version: 6.00 Build 0) -->
<svg version="1.1" id="svg1009048" xmlns:cc="http://creativecommons.org/ns#" xmlns:dc="http://purl.org/dc/elements/1.1/" xmlns:rdf="http://www.w3.org/1999/02/22-rdf-syntax-ns#" xmlns:svg="http://www.w3.org/2000/svg" xmlns="http://www.w3.org/2000/svg" xmlns:xlink="http://www.w3.org/1999/xlink" x="0px" y="0px" viewBox="0 0 531.1 128.4" style="enable-background:new 0 0 531.1 128.4;" xml:space="preserve">
	<style type="text/css">
		.st0{fill:#f542bf;}
	</style>
	<g id="logo-group">
		<g id="title">
			<path id="path1009056" class="st0" d="M109.2,116.1L63,5.7C61.5,2,58.9,0,54.9,0c-3.8,0-6.4,2-8,5.7l-46.1,110
			c-0.7,1.5-0.8,2.8-0.8,3.8c0,2.5,0.7,4.4,2.3,6.1s3.6,2.5,6.1,2.5c1.6,0,3.1-0.3,4.6-1.3c1.3-1,2.5-2.1,3.3-3.9l39-95.4l38.4,95.4
			c0.5,1.6,1.6,3,3.1,3.9c1.5,1,3,1.3,4.8,1.3c2.3,0,4.4-0.8,6.1-2.5c1.6-1.6,2.5-3.6,2.5-5.9C110,118.7,109.7,117.6,109.2,116.1z" />
			<path id="path1009058" class="st0" d="M205.3,128.4c1.6,0,3.1-0.5,4.6-1.5c1.8-1.3,3-3.1,3.4-5.4c0.3-2.1,0-4.3-1.3-6.1l-27.1-39
			c5.7-2.5,10.5-6.1,14.6-10.8c6.4-7.4,9.5-16.1,9.5-25.7c0-11-3.9-20.3-11.6-28.2C189.6,3.9,180.2,0,169.3,0h-32
			c-2.3,0-4.1,0.8-5.7,2.5c-1.6,1.6-2.5,3.4-2.5,5.7V120c0,2.3,0.8,4.3,2.5,5.7c1.6,1.6,3.4,2.5,5.7,2.5c2.3,0,4.3-0.8,5.7-2.5
			c1.6-1.5,2.5-3.4,2.5-5.7V16.4h23.8c6.4,0,12,2.3,16.6,6.9s6.9,10,6.9,16.6c0,5.7-2,10.8-5.6,15.1c-3.6,4.3-8.2,6.9-13.6,7.9
			l-3,0.3c-3.1,0.3-5.4,2-6.6,4.8c-1.5,2.8-1.1,5.6,0.7,8l33.9,48.9C200.1,127.1,202.4,128.4,205.3,128.4L205.3,128.4z" />
			<path id="path1009060" class="st0" d="M309.1,128.4c1.6,0,3.1-0.5,4.6-1.5c1.8-1.3,3-3.1,3.4-5.4c0.3-2.1,0-4.3-1.3-6.1l-27.1-39
			c5.7-2.5,10.5-6.1,14.6-10.8c6.4-7.4,9.5-16.1,9.5-25.7c0-11-3.9-20.3-11.6-28.2C293.4,3.9,284,0,273,0h-32
			c-2.3,0-4.1,0.8-5.7,2.5s-2.5,3.4-2.5,5.7V120c0,2.3,0.8,4.3,2.5,5.7c1.6,1.6,3.4,2.5,5.7,2.5c2.3,0,4.3-0.8,5.7-2.5
			c1.6-1.5,2.5-3.4,2.5-5.7V16.4H273c6.4,0,12,2.3,16.6,6.9s6.9,10,6.9,16.6c0,5.7-2,10.8-5.6,15.1c-3.6,4.3-8.2,6.9-13.6,7.9
			l-3,0.3c-3.1,0.3-5.4,2-6.6,4.8c-1.5,2.8-1.1,5.6,0.7,8l33.9,48.9C303.9,127.1,306.2,128.4,309.1,128.4L309.1,128.4z" />
			<path id="path1009062" class="st0" d="M432.1,116.1L385.8,5.7c-1.5-3.8-4.1-5.7-8-5.7c-3.8,0-6.4,2-8,5.7l-46.1,110
			c-0.7,1.5-0.8,2.8-0.8,3.8c0,2.5,0.7,4.4,2.3,6.1c1.6,1.6,3.6,2.5,6.1,2.5c1.6,0,3.1-0.3,4.6-1.3c1.3-1,2.5-2.1,3.3-3.9l39-95.4
			l38.4,95.4c0.5,1.6,1.6,3,3.1,3.9c1.5,1,3,1.3,4.8,1.3c2.3,0,4.4-0.8,6.1-2.5c1.6-1.6,2.5-3.6,2.5-5.9
			C432.9,118.7,432.6,117.6,432.1,116.1L432.1,116.1z" />
			<path id="path1009064" class="st0" d="M529,2.3c-1.3-1.5-3.1-2.3-5.1-2.3c-3.3,0-5.9,1.5-7.5,4.1l-39,61.5L439,4.8
			c-1.1-1.6-2.3-2.8-3.3-3.6c-1.1-0.7-2.6-1.1-4.3-1.1c-2.3,0-4.4,0.8-6.1,2.3c-1.6,1.6-2.5,3.4-2.5,5.7c0,1.6,0.5,3.4,1.8,5.2
			l43.8,68.1v38.2c0,2.5,0.8,4.4,2.5,6.1c1.6,1.6,3.6,2.5,5.9,2.5c2.3,0,4.4-0.8,6.1-2.5c1.6-1.6,2.5-3.6,2.5-6.1V81.3l44.1-68.1
			c1-1.6,1.6-3.4,1.6-5.4C531.1,5.7,530.3,3.9,529,2.3L529,2.3z" />
		</g>
		<g id="tagline">
		</g>
	</g>
</svg>
