<?xml version="1.0" encoding="utf-8"?>
<!-- Generator: Adobe Illustrator 21.0.2, SVG Export Plug-In . SVG Version: 6.00 Build 0)  -->
<svg version="1.1"
	 id="svg111342" xmlns:cc="http://creativecommons.org/ns#" xmlns:dc="http://purl.org/dc/elements/1.1/" xmlns:rdf="http://www.w3.org/1999/02/22-rdf-syntax-ns#" xmlns:svg="http://www.w3.org/2000/svg"
	 xmlns="http://www.w3.org/2000/svg" xmlns:xlink="http://www.w3.org/1999/xlink" x="0px" y="0px" viewBox="0 0 520 79"
	 style="enable-background:new 0 0 520 79;" xml:space="preserve">
<style type="text/css">
	.st0{fill:#0E5BAD;}
</style>
<g id="logo-group">
	<g id="title">
		<path id="path111350" class="st0" d="M28.7,38.4c4.5-2.5,7.2-7.8,7.2-14.2v-4.8c0-11.6-7.2-19.3-18.2-19.3C7.1,0.1,0,7.8,0,19.4
			v54.3c0,2.6,1.9,4.5,4.4,4.5h14.6c11.1,0,18.6-7.7,18.6-19.5v-5C37.5,46.7,34.2,41.2,28.7,38.4L28.7,38.4z M9.9,18.8
			c0-5.9,3-9.5,7.9-9.5c5.3,0,8.3,3.6,8.3,9.5V25c0,6-3.2,9.6-8.3,9.6H9.9V18.8z M27.5,59.2c0,6.1-3.2,9.9-8.8,9.9H9.9V43.6h8.9
			c5.6,0,8.8,3.7,8.8,10V59.2z"/>
		<path id="path111352" class="st0" d="M85.9,78.9c11.4,0,19.3-8.3,19.3-19.8V19.9c0-11.5-7.9-19.8-19.3-19.8S66.5,8.4,66.5,20.7
			v37.7C66.5,70.6,74.5,78.9,85.9,78.9L85.9,78.9z M85.9,69.7c-5.6,0-9.4-4.2-9.4-10.9V20.3c0-6.8,3.8-10.9,9.4-10.9
			c5.6,0,9.3,4.2,9.3,10.2v40.1C95.2,65.6,91.5,69.7,85.9,69.7L85.9,69.7z"/>
		<path id="path111354" class="st0" d="M156.8,78.9c11.4,0,19.3-8.3,19.3-19.8V19.9c0-11.5-7.9-19.8-19.3-19.8
			c-11.4,0-19.4,8.3-19.4,20.6v37.7C137.4,70.6,145.4,78.9,156.8,78.9L156.8,78.9z M156.8,69.7c-5.6,0-9.4-4.2-9.4-10.9V20.3
			c0-6.8,3.8-10.9,9.4-10.9s9.3,4.2,9.3,10.2v40.1C166.1,65.6,162.4,69.7,156.8,69.7L156.8,69.7z"/>
		<path id="path111356" class="st0" d="M211.7,77.8h6.9c0.9,0,1.4-0.5,1.4-1.5V43.9h8c5.8,0,9.2,4.2,9.2,10.7v21.7
			c0,1,0.5,1.5,1.5,1.5h6.9c1,0,1.5-0.5,1.5-1.5V54.8c0-8.3-3.4-14.8-9.6-17.6l10.1-34.4c0.2-1-0.2-1.6-1.3-1.6h-6.9
			c-0.8,0-1.4,0.4-1.6,1.2l-9,32.3H220V2.6c0-0.9-0.5-1.4-1.4-1.4h-6.9c-1,0-1.5,0.5-1.5,1.4v73.7C210.2,77.3,210.7,77.8,211.7,77.8
			L211.7,77.8z"/>
		<path id="path111358" class="st0" d="M297.3,79c11.2,0,18.5-8.4,18.9-21.7c0-1-0.5-1.5-1.4-1.5h-7c-0.9,0-1.4,0.4-1.4,1.4
			c-0.2,8-3.6,12.5-9.2,12.5c-5.5,0-8.6-3.7-8.6-9.9V19.2c0-6.1,3.2-9.9,8.6-9.9c5,0,8.4,4.1,8.6,11.7c0,1,0.5,1.4,1.4,1.4h7
			c1,0,1.4-0.5,1.4-1.4c-0.3-12.8-7.7-21-18.4-21c-11.2,0-18.7,7.9-18.7,19.7v39.6C278.6,71.2,286.2,79,297.3,79z"/>
		<path id="path111360" class="st0" d="M365.3,78.9c11.4,0,19.3-8.3,19.3-19.8V19.9c0-11.5-7.9-19.8-19.3-19.8s-19.4,8.3-19.4,20.6
			v37.7C345.9,70.6,353.9,78.9,365.3,78.9L365.3,78.9z M365.3,69.7c-5.6,0-9.4-4.2-9.4-10.9V20.3c0-6.8,3.8-10.9,9.4-10.9
			s9.3,4.2,9.3,10.2v40.1C374.6,65.6,370.8,69.7,365.3,69.7L365.3,69.7z"/>
		<path id="path111362" class="st0" d="M423.2,78.2h14.1c11.4,0,18.7-8.3,18.7-19.8V20.7c0-11.5-7.2-19.8-18.7-19.8h-14.1
			c-2.8,0-4.5,1.5-4.5,4.4v68.5C418.7,76.6,420.3,78.2,423.2,78.2L423.2,78.2z M428.6,69V10.1h8.3c5.8,0,9.1,4.2,9.1,10.4v38.1
			c0,6.2-3.4,10.4-9.1,10.4L428.6,69z"/>
		<path id="path111364" class="st0" d="M507.1,78.2h11.5c0.9,0,1.4-0.5,1.4-1.4v-6.2c0-1-0.5-1.5-1.4-1.5h-10.7
			c-5.7,0-9.5-4.4-9.5-10.6V43.6h17.5c1,0,1.5-0.5,1.5-1.5v-5.9c0-1-0.5-1.5-1.5-1.5h-17.5V20.7c0-6.2,3.8-10.6,9.5-10.6h10.7
			c0.9,0,1.4-0.5,1.4-1.5V2.3c0-0.9-0.5-1.4-1.4-1.4h-11.5c-11.1,0-18.7,8.3-18.7,19.6v38.1C488.4,69.8,496,78.2,507.1,78.2z"/>
	</g>
	<g id="tagline">
	</g>
</g>
</svg>
