<?xml version="1.0" encoding="utf-8"?>
<!-- Generator: Adobe Illustrator 21.0.2, SVG Export Plug-In . SVG Version: 6.00 Build 0)  -->
<svg version="1.1"
	 id="svg536878" xmlns:cc="http://creativecommons.org/ns#" xmlns:dc="http://purl.org/dc/elements/1.1/" xmlns:rdf="http://www.w3.org/1999/02/22-rdf-syntax-ns#" xmlns:svg="http://www.w3.org/2000/svg"
	 xmlns="http://www.w3.org/2000/svg" xmlns:xlink="http://www.w3.org/1999/xlink" x="0px" y="0px" viewBox="0 0 651.7 57.9"
	 style="enable-background:new 0 0 651.7 57.9;" xml:space="preserve">
<style type="text/css">
	.st0{fill:#00B5F4;}
</style>
<g id="logo-group">
	<g id="title">
		<path id="path536886" class="st0" d="M29.5,2.7C27,1.4,24.1,0.8,21,0.8H3.7c-1.1,0-1.9,0.4-2.7,1.1S0,3.5,0,4.5v48.7
			c0,1.1,0.4,1.9,1.1,2.7S2.7,57,3.7,57h18.7c3.5,0,6.7-0.7,9.5-2.2c2.8-1.4,5-3.5,6.6-6c1.6-2.6,2.4-5.5,2.4-8.8
			c0-3.5-0.9-6.5-2.8-8.8c-1.9-2.3-4.5-3.8-7.7-4.6c2.2-1.2,3.9-2.7,5.2-4.5c1.3-1.9,1.9-4,1.9-6.3c0-2.9-0.7-5.4-2.2-7.7
			S32,4,29.5,2.7L29.5,2.7z M27.7,21.8c-1.7,1.4-4,2.1-6.8,2.1H7.5V7.7H21c2.8,0,5,0.7,6.8,2.1s2.6,3.4,2.6,6
			C30.3,18.4,29.4,20.4,27.7,21.8L27.7,21.8z M30.6,47.5c-2.1,1.7-4.8,2.6-8.1,2.6h-15V30.8h15c3.4,0,6.1,0.8,8.1,2.4
			c2,1.6,3.1,3.9,3.1,6.8C33.7,43.3,32.6,45.8,30.6,47.5z"/>
		<path id="path536888" class="st0" d="M100.7,57.2c0.7,0,1.4-0.2,2-0.6c0.8-0.6,1.3-1.4,1.5-2.4c0.1-0.9,0-1.9-0.6-2.7L91.7,34.3
			c2.5-1.1,4.6-2.7,6.4-4.8c2.8-3.2,4.2-7.1,4.2-11.3c0-4.8-1.7-8.9-5.1-12.4c-3.5-3.4-7.6-5.1-12.4-5.1h-14c-1,0-1.8,0.4-2.5,1.1
			s-1.1,1.5-1.1,2.5v49.1c0,1,0.4,1.9,1.1,2.5c0.7,0.7,1.5,1.1,2.5,1.1c1,0,1.9-0.4,2.5-1.1c0.7-0.6,1.1-1.5,1.1-2.5V8h10.4
			c2.8,0,5.3,1,7.3,3s3,4.4,3,7.3c0,2.5-0.9,4.8-2.4,6.6c-1.6,1.9-3.6,3-6,3.5l-1.3,0.1c-1.4,0.1-2.4,0.9-2.9,2.1
			c-0.6,1.2-0.5,2.4,0.3,3.5l14.9,21.5C98.4,56.6,99.4,57.2,100.7,57.2L100.7,57.2z"/>
		<path id="path536890" class="st0" d="M153.6,57.9c3.9,0,7.6-0.8,11.2-2.3c3.5-1.4,6.6-3.5,9.2-6.2s4.8-5.7,6.2-9.2
			c1.5-3.5,2.3-7.3,2.3-11.2s-0.8-7.7-2.3-11.3c-1.4-3.5-3.5-6.5-6.2-9.1c-2.7-2.7-5.8-4.8-9.2-6.2c-3.6-1.5-7.3-2.3-11.2-2.3
			c-4,0-7.7,0.8-11.3,2.3c-3.5,1.4-6.6,3.5-9.2,6.2s-4.8,5.7-6.2,9.1c-1.5,3.6-2.2,7.3-2.2,11.3s0.7,7.7,2.2,11.2
			c1.4,3.5,3.5,6.6,6.2,9.2s5.8,4.8,9.2,6.2C145.9,57.1,149.6,57.9,153.6,57.9L153.6,57.9z M153.6,7.2c6,0,11.1,2.1,15.3,6.3
			s6.4,9.4,6.4,15.4s-2.2,11.1-6.4,15.3c-4.2,4.2-9.4,6.4-15.3,6.4c-6,0-11.2-2.2-15.4-6.4c-4.2-4.2-6.3-9.4-6.3-15.3
			s2.1-11.2,6.3-15.4S147.5,7.2,153.6,7.2z"/>
		<path id="path536892" class="st0" d="M267.1,1.7c-0.5-0.6-1.2-0.9-2.2-0.9c-1,0-1.9,0.2-2.4,0.6c-0.6,0.4-1,1-1.2,1.9l-12,41.7
			l-11-41c-0.2-0.7-0.6-1.4-1.3-1.8c-0.7-0.4-1.4-0.6-2.2-0.6c-0.9,0-1.7,0.3-2.3,0.7c-0.7,0.5-1.2,1.1-1.3,1.8l-10.9,40.6l-11.8-41
			c-0.3-0.9-0.8-1.6-1.4-2.1c-0.6-0.4-1.4-0.7-2.2-0.7c-1,0-1.7,0.3-2.3,0.9S201.7,3,201.7,4c0,0.7,0.1,1.4,0.3,1.9l14.5,48.1
			c0.3,0.9,0.7,1.7,1.4,2.2c0.6,0.6,1.4,0.8,2.3,0.8c0.9,0,1.6-0.2,2.2-0.8c0.6-0.6,1.2-1.3,1.5-2.2l10.9-41.4l10.7,41.5
			c0.3,0.9,0.7,1.6,1.4,2.2c0.6,0.6,1.4,0.8,2.3,0.8c0.9,0,1.6-0.2,2.2-0.8c0.6-0.6,1.2-1.3,1.5-2.2l14.5-48c0.1-0.6,0.3-1.3,0.3-2
			C267.8,3,267.5,2.2,267.1,1.7z"/>
		<path id="path536894" class="st0" d="M320.1,2.7c-2.9-1.7-6.3-2.5-10.4-2.5c-3.8,0-7.3,0.6-10.3,1.8s-5.5,2.9-7.2,5.1
			c-1.7,2.2-2.6,4.9-2.6,7.9c0,4.4,1.7,8.1,5.1,10.9c3.4,2.9,8.1,4.6,14,5.2c4.3,0.4,7.5,1.7,9.6,3.6c2.1,1.9,3.2,4.2,3.2,7
			c0,2.9-1.3,5.2-3.7,6.8c-2.5,1.7-5.5,2.4-9.1,2.4c-3.1,0-5.9-0.6-8.4-1.9c-2.6-1.3-4.2-2.9-5.1-4.8c-0.4-0.7-0.9-1.4-1.6-1.8
			c-0.7-0.4-1.4-0.7-2.2-0.7c-0.4,0-0.6,0.1-0.7,0.1c-0.9,0.2-1.7,0.6-2.2,1.2c-0.6,0.6-0.8,1.2-0.8,1.9c0,0.4,0.1,0.9,0.4,1.4
			c1.4,3.5,4,6.2,7.8,8.3c3.8,2.2,8.1,3.2,12.7,3.2c3.5,0,6.8-0.6,9.9-1.8c3.1-1.2,5.6-3.1,7.5-5.5c1.9-2.4,2.8-5.5,2.8-8.9
			c0-4.8-1.6-8.6-4.8-11.4s-7.6-4.7-13.4-5.3c-5.2-0.5-8.8-1.6-10.8-3.3c-2-1.7-3-3.7-3-6.3c0-2.7,1.1-4.7,3.4-6.1
			c2.2-1.4,5.2-2.2,8.9-2.2c3,0,5.4,0.6,7.3,1.7c1.9,1.2,3.6,2.7,4.9,4.9c0.3,0.6,0.8,1.2,1.4,1.5c0.6,0.4,1.3,0.5,2,0.5
			s1.3-0.1,1.9-0.5c0.9-0.6,1.4-1.5,1.4-2.6c0-0.8-0.3-1.7-0.9-2.6C325.3,6.8,322.9,4.4,320.1,2.7L320.1,2.7z"/>
		<path id="path536896" class="st0" d="M394.2,51c-0.7-0.6-1.6-0.9-2.7-0.9h-28.8v-18h20.7c1,0,1.9-0.3,2.6-0.9
			c0.7-0.6,1.1-1.5,1.1-2.5c0-1-0.4-1.8-1.1-2.4c-0.7-0.6-1.6-1-2.6-1h-20.7V7.7h28.8c1.1,0,1.9-0.3,2.7-0.9c0.6-0.6,1-1.4,1-2.4
			c0-1-0.4-1.9-1-2.5c-0.7-0.6-1.6-1-2.7-1H359c-1.1,0-1.9,0.4-2.7,1.1c-0.7,0.7-1.1,1.6-1.1,2.7v48.7c0,1.1,0.4,1.9,1.1,2.7
			c0.7,0.7,1.6,1.1,2.7,1.1h32.5c1.1,0,1.9-0.3,2.7-0.9c0.6-0.6,1-1.5,1-2.6C395.2,52.5,394.9,51.7,394.2,51L394.2,51z"/>
		<path id="path536898" class="st0" d="M454.2,57.2c0.7,0,1.4-0.2,2-0.6c0.8-0.6,1.3-1.4,1.5-2.4c0.1-0.9,0-1.9-0.6-2.7l-11.9-17.1
			c2.5-1.1,4.6-2.7,6.4-4.8c2.8-3.2,4.2-7.1,4.2-11.3c0-4.8-1.7-8.9-5.1-12.4c-3.5-3.4-7.6-5.1-12.4-5.1h-14c-1,0-1.8,0.4-2.5,1.1
			c-0.7,0.7-1.1,1.5-1.1,2.5v49.1c0,1,0.4,1.9,1.1,2.5c0.7,0.7,1.5,1.1,2.5,1.1s1.9-0.4,2.5-1.1c0.7-0.6,1.1-1.5,1.1-2.5V8h10.4
			c2.8,0,5.3,1,7.3,3s3,4.4,3,7.3c0,2.5-0.9,4.8-2.4,6.6s-3.6,3-6,3.5l-1.3,0.1c-1.4,0.1-2.4,0.9-2.9,2.1c-0.6,1.2-0.5,2.4,0.3,3.5
			l14.9,21.5C451.9,56.6,452.9,57.2,454.2,57.2L454.2,57.2z"/>
		<path id="path536900" class="st0" d="M524.7,1.7c-0.6-0.6-1.4-0.9-2.4-0.9c-0.9,0-1.6,0.2-2.1,0.5c-0.6,0.3-1,0.9-1.3,1.7
			l-18.4,43.5L482.3,3c-0.6-1.4-1.8-2.2-3.5-2.2c-1.1,0-1.9,0.3-2.5,0.9c-0.6,0.6-0.9,1.3-0.9,2.2c0,0.7,0.1,1.5,0.6,2.5l21.1,48.2
			c0.7,1.6,1.8,2.4,3.4,2.4s2.7-0.8,3.4-2.4l21.3-48.9c0.3-0.6,0.4-1.3,0.4-1.9C525.6,3,525.2,2.2,524.7,1.7z"/>
		<path id="path536902" class="st0" d="M588.1,51c-0.7-0.6-1.6-0.9-2.7-0.9h-28.8v-18h20.7c1,0,1.9-0.3,2.6-0.9
			c0.7-0.6,1.1-1.5,1.1-2.5c0-1-0.4-1.8-1.1-2.4c-0.7-0.6-1.6-1-2.6-1h-20.7V7.7h28.8c1.1,0,1.9-0.3,2.7-0.9c0.6-0.6,1-1.4,1-2.4
			c0-1-0.4-1.9-1-2.5c-0.7-0.6-1.6-1-2.7-1h-32.5c-1.1,0-1.9,0.4-2.7,1.1c-0.7,0.7-1.1,1.6-1.1,2.7v48.7c0,1.1,0.4,1.9,1.1,2.7
			c0.7,0.7,1.6,1.1,2.7,1.1h32.5c1.1,0,1.9-0.3,2.7-0.9c0.6-0.6,1-1.5,1-2.6C589.1,52.5,588.8,51.7,588.1,51L588.1,51z"/>
		<path id="path536904" class="st0" d="M648.2,57.2c0.7,0,1.4-0.2,2-0.6c0.8-0.6,1.3-1.4,1.5-2.4c0.1-0.9,0-1.9-0.6-2.7l-11.9-17.1
			c2.5-1.1,4.6-2.7,6.4-4.8c2.8-3.2,4.2-7.1,4.2-11.3c0-4.8-1.7-8.9-5.1-12.4c-3.5-3.4-7.6-5.1-12.4-5.1h-14c-1,0-1.8,0.4-2.5,1.1
			c-0.7,0.7-1.1,1.5-1.1,2.5v49.1c0,1,0.4,1.9,1.1,2.5c0.7,0.7,1.5,1.1,2.5,1.1s1.9-0.4,2.5-1.1c0.7-0.6,1.1-1.5,1.1-2.5V8h10.4
			c2.8,0,5.3,1,7.3,3s3,4.4,3,7.3c0,2.5-0.9,4.8-2.4,6.6s-3.6,3-6,3.5l-1.3,0.1c-1.4,0.1-2.4,0.9-2.9,2.1c-0.6,1.2-0.5,2.4,0.3,3.5
			l14.9,21.5C645.9,56.6,646.9,57.2,648.2,57.2z"/>
	</g>
	<g id="tagline">
	</g>
</g>
</svg>
