<?xml version="1.0" encoding="utf-8"?>
<!-- Generator: Adobe Illustrator 21.0.2, SVG Export Plug-In . SVG Version: 6.00 Build 0)  -->
<svg version="1.1"
	 id="svg613639" xmlns:cc="http://creativecommons.org/ns#" xmlns:dc="http://purl.org/dc/elements/1.1/" xmlns:rdf="http://www.w3.org/1999/02/22-rdf-syntax-ns#" xmlns:svg="http://www.w3.org/2000/svg"
	 xmlns="http://www.w3.org/2000/svg" xmlns:xlink="http://www.w3.org/1999/xlink" x="0px" y="0px" viewBox="0 0 388.7 65.5"
	 style="enable-background:new 0 0 388.7 65.5;" xml:space="preserve">
<style type="text/css">
	.st0{fill:#5C5B62;}
</style>
<g id="logo-group">
	<g id="title">
		<path id="path613647" class="st0" d="M16.8,61.4c5.2,2.8,11.2,4.1,17.8,4.1c5.8,0,10.9-1,15.6-3.1c4.6-2,8.5-5,11.5-8.8L50.4,43.4
			c-4.1,4.9-9.1,7.4-14.9,7.4c-3.4,0-6.5-0.7-9.2-2.3c-2.7-1.4-4.8-3.6-6.2-6.3c-1.4-2.7-2.2-5.9-2.2-9.4c0-3.5,0.7-6.7,2.2-9.4
			c1.4-2.7,3.5-4.9,6.2-6.4c2.7-1.4,5.8-2.3,9.2-2.3c5.8,0,10.7,2.5,14.9,7.4l11.3-10.3c-3.1-3.8-6.9-6.8-11.5-8.8
			C45.5,1.1,40.4,0,34.7,0C28,0,22.1,1.4,16.8,4.2C11.6,7,7.5,10.9,4.5,15.8C1.4,20.9,0,26.5,0,32.8s1.4,12,4.5,16.9
			C7.5,54.7,11.6,58.6,16.8,61.4z"/>
		<path id="path613649" class="st0" d="M88.4,1.3v63h47.9V50.1h-30.1V1.3H88.4z"/>
		<path id="path613651" class="st0" d="M212,1.3H162V15H212V1.3z M212,25.7H162V39H212V25.7z M162,50.5v13.8H212V50.5H162z"/>
		<path id="path613653" class="st0" d="M279,1.3h-17.5l-27.8,63h18.2l5-12.2l5.2-13.1l8.1-20.2l8.1,20.2l5.2,13.1l5,12.2h18.5
			L279,1.3z"/>
		<path id="path613655" class="st0" d="M375.1,44.5c3.9-1.9,6.9-4.5,9.1-7.9c2.2-3.4,3.2-7.4,3.2-12c0-4.7-1.2-8.8-3.4-12.3
			c-2.3-3.5-5.6-6.2-9.7-8.1c-4.2-1.9-9.2-2.9-14.9-2.9h-28.8v14h27.7c3.6,0,6.4,0.8,8.3,2.4c1.8,1.6,2.8,4,2.8,6.8
			c0,3-1,5.2-2.8,6.8c-1.9,1.6-4.7,2.3-8.3,2.3h-27.7v30.5h17.8V47.5h9.7l11.4,16.7h19.1L375.1,44.5z"/>
	</g>
	<g id="tagline">
	</g>
</g>
</svg>
