<?xml version="1.0" encoding="utf-8"?>
<!-- Generator: Adobe Illustrator 21.0.2, SVG Export Plug-In . SVG Version: 6.00 Build 0)  -->
<svg version="1.1"
	 id="svg368859" xmlns:cc="http://creativecommons.org/ns#" xmlns:dc="http://purl.org/dc/elements/1.1/" xmlns:rdf="http://www.w3.org/1999/02/22-rdf-syntax-ns#" xmlns:svg="http://www.w3.org/2000/svg"
	 xmlns="http://www.w3.org/2000/svg" xmlns:xlink="http://www.w3.org/1999/xlink" x="0px" y="0px" viewBox="0 0 520 78.8"
	 style="enable-background:new 0 0 520 78.8;" xml:space="preserve">
<style type="text/css">
	.st0{fill:#8C2042;}
</style>
<g id="logo-group">
	<g id="title">
		<path id="path368867" class="st0" d="M46.7,32c-5.2-6-11.8-9-19.6-9c-5.2,0-9.9,1.2-14,3.6c-4.2,2.4-7.4,5.7-9.7,9.9
			C1.1,40.7,0,45.5,0,50.8C0,56,1.1,60.8,3.5,65s5.7,7.5,9.9,9.9s8.9,3.6,14.2,3.6c7.2,0,13.2-2.2,18-6.7c0.8-0.8,1.2-1.7,1.2-2.7
			c0-1.3-0.7-2.5-1.9-3.6c-0.8-0.6-1.7-0.9-2.6-0.9c-1.2,0-2.5,0.5-3.7,1.4c-2.8,2.4-6.5,3.5-11,3.5c-3.5,0-6.6-0.8-9.3-2.4
			c-2.7-1.6-4.8-3.8-6.3-6.6c-1.5-2.8-2.2-6.1-2.2-9.7c0-5.6,1.6-10.2,4.8-13.6S21.9,32,27.1,32c2.5,0,4.7,0.5,6.7,1.3
			c2,0.8,3.8,2.1,5.5,3.9c1,1.2,2.3,1.8,3.9,1.8c0.8,0,1.6-0.2,2.3-0.7c1.4-1,2.2-2.2,2.2-3.7C47.7,33.6,47.3,32.8,46.7,32L46.7,32z
			"/>
		<path id="path368869" class="st0" d="M69.3,1.4c-1,1-1.4,2.2-1.4,3.6v54.6c0,3.6,0.6,6.8,1.9,9.6c1.2,2.8,3,5,5.3,6.6
			c2.3,1.6,4.9,2.3,7.8,2.3h0.2c2,0,3.6-0.4,4.9-1.4c1.2-0.9,1.9-2.1,1.9-3.6c0-1.4-0.5-2.6-1.3-3.6c-0.8-0.9-1.9-1.4-3.2-1.4h-2.5
			c-1.5,0-2.7-0.8-3.6-2.4c-1-1.6-1.4-3.6-1.4-6.1V5c0-1.4-0.5-2.6-1.4-3.6c-1-0.9-2.2-1.4-3.6-1.4C71.4,0,70.2,0.5,69.3,1.4
			L69.3,1.4z"/>
		<path id="path368871" class="st0" d="M109.3,24.8c-1,1-1.4,2.2-1.4,3.7V73c0,1.5,0.4,2.7,1.4,3.7c1,1,2.2,1.4,3.7,1.4
			c1.5,0,2.7-0.4,3.7-1.4c0.9-1,1.4-2.2,1.4-3.7V28.5c0-1.5-0.5-2.7-1.4-3.7c-1-0.9-2.2-1.4-3.7-1.4
			C111.5,23.4,110.3,23.9,109.3,24.8z"/>
		<path id="path368873" class="st0" d="M188.1,32c-5.2-6-11.8-9-19.6-9c-5.2,0-9.9,1.2-14,3.6c-4.2,2.4-7.4,5.7-9.7,9.9
			c-2.3,4.2-3.4,9-3.4,14.3c0,5.2,1.1,10,3.5,14.2c2.4,4.2,5.7,7.5,9.9,9.9s8.9,3.6,14.2,3.6c7.2,0,13.2-2.2,18-6.7
			c0.8-0.8,1.2-1.7,1.2-2.7c0-1.3-0.7-2.5-1.9-3.6c-0.8-0.6-1.7-0.9-2.6-0.9c-1.2,0-2.5,0.5-3.7,1.4c-2.8,2.4-6.5,3.5-11,3.5
			c-3.5,0-6.6-0.8-9.3-2.4c-2.7-1.6-4.8-3.8-6.3-6.6c-1.5-2.8-2.2-6.1-2.2-9.7c0-5.6,1.6-10.2,4.8-13.6s7.3-5.2,12.5-5.2
			c2.5,0,4.7,0.5,6.7,1.3c2,0.8,3.8,2.1,5.5,3.9c1,1.2,2.3,1.8,3.9,1.8c0.8,0,1.6-0.2,2.3-0.7c1.4-1,2.2-2.2,2.2-3.7
			C189.1,33.6,188.7,32.8,188.1,32L188.1,32z"/>
		<path id="path368875" class="st0" d="M253.7,73.9c0-1.2-0.4-2.2-1.1-3l-19.4-23.8l18.4-16.4c1-0.8,1.6-2,1.6-3.4
			c0-1.2-0.5-2.2-1.3-3.1c-0.9-1-2-1.6-3.4-1.6c-1.2,0-2.3,0.5-3.1,1.3l-24.3,21.7V4.9c0-1.4-0.5-2.6-1.4-3.5
			c-0.9-0.9-2.1-1.4-3.5-1.4c-1.5,0-2.7,0.5-3.6,1.4s-1.3,2.1-1.3,3.5v68.3c0,1.5,0.4,2.7,1.3,3.6c0.9,0.9,2.1,1.3,3.6,1.3
			c1.4,0,2.6-0.4,3.5-1.3c0.9-0.9,1.4-2.1,1.4-3.6V57.9l5-4.4l19,23.5c0.9,1.2,2.1,1.8,3.6,1.8c1.1,0,2.2-0.4,3.2-1.2
			C253.1,76.6,253.7,75.4,253.7,73.9z"/>
		<path id="path368877" class="st0" d="M267.1,50.7c0,5.3,1.2,10,3.6,14.2c2.4,4.2,5.8,7.6,10,10c4.2,2.4,8.9,3.6,14,3.6h0.4h0.2
			h22.1c1.4,0,2.5-0.4,3.4-1.3c1-1,1.4-2.1,1.4-3.4V52.5v-1.8V5.1c0-1.5-0.4-2.7-1.4-3.7c-0.9-0.9-2.1-1.4-3.7-1.4
			c-1.4,0-2.6,0.5-3.6,1.4c-1,1-1.5,2.2-1.5,3.7v27c-2.3-2.8-5.1-5-8.5-6.7c-3.3-1.6-6.9-2.4-10.8-2.4c-4.8,0-9.1,1.2-13,3.6
			c-3.9,2.5-7,5.8-9.2,10C268.3,40.8,267.1,45.6,267.1,50.7L267.1,50.7z M276.9,50.7c0-3.5,0.8-6.7,2.4-9.5c1.6-2.8,3.7-5.1,6.4-6.7
			c2.7-1.6,5.7-2.5,9-2.5c3.4,0,6.4,0.9,9.1,2.5c2.7,1.6,4.8,3.9,6.3,6.7c1.6,2.8,2.3,6,2.3,9.5c0,3.6-0.7,6.8-2.3,9.6
			c-1.5,2.9-3.6,5.2-6.3,6.8c-2.7,1.6-5.7,2.4-9.1,2.4c-3.3,0-6.3-0.8-9-2.4s-4.8-3.9-6.4-6.8C277.7,57.5,276.9,54.3,276.9,50.7z"/>
		<path id="path368879" class="st0" d="M395.1,53.1c0.8-0.8,1.3-1.9,1.3-3.2c0-5.2-1-9.9-3-14c-2-4-4.9-7.2-8.6-9.5
			c-3.8-2.2-8.2-3.4-13.3-3.4c-5.2,0-9.9,1.2-14,3.6c-4.1,2.4-7.3,5.7-9.6,9.9s-3.4,9-3.4,14.3c0,5.4,1.2,10.1,3.6,14.3
			c2.4,4.2,5.8,7.5,10.2,9.9c4.3,2.4,9.2,3.5,14.7,3.5c3,0,6.2-0.5,9.6-1.7c3.4-1.1,6.2-2.6,8.5-4.4c1-0.8,1.6-1.8,1.6-3
			c0-1.2-0.6-2.4-1.8-3.4c-0.8-0.6-1.8-1-3-1c-1.3,0-2.4,0.4-3.3,1.1c-1.4,1.1-3.2,2-5.4,2.7c-2.2,0.8-4.2,1.1-6.2,1.1
			c-5.1,0-9.4-1.4-12.9-4.3c-3.5-2.8-5.6-6.6-6.3-11.3h38C393.1,54.3,394.2,53.9,395.1,53.1L395.1,53.1z M359.6,35.6
			c3-2.6,7-4,11.9-4c4.4,0,7.9,1.4,10.7,4c2.7,2.7,4.4,6.3,5,10.7h-33.3C354.7,41.9,356.6,38.3,359.6,35.6L359.6,35.6z"/>
		<path id="path368881" class="st0" d="M447.1,25.1c-3.4-1.4-7.3-2.1-11.6-2.1c-3.6,0-6.9,0.6-10,1.7c-3.2,1.2-5.7,2.9-7.6,5.1
			c-2,2.3-2.9,5.1-2.9,8.3c0,8.1,6.4,13.4,19.2,15.8c4.9,1,8.4,2.1,10.5,3.5c2,1.4,3.1,3.1,3.1,5.1c0,2.2-1.1,3.9-3.2,5.1
			c-2.1,1.3-5,1.9-8.8,1.9c-2.9,0-5.6-0.5-8.1-1.5c-2.6-1-4.5-2.3-5.7-3.7c-1.2-1.2-2.5-1.8-3.8-1.8c-1.1,0-2.3,0.5-3.5,1.4
			c-1.4,1-2,2.3-2,3.9c0,1.2,0.4,2.3,1.3,3.1c2.2,2.3,5.4,4.1,9.4,5.5c4,1.4,8.2,2.1,12.8,2.1c4.5,0,8.4-0.7,11.6-2.1
			c3.2-1.4,5.7-3.4,7.4-5.9c1.6-2.5,2.5-5.3,2.5-8.4c0-4.1-1.6-7.5-4.6-10.1c-3-2.6-8.2-4.6-15.4-6.1c-3.6-0.7-6.3-1.4-8.1-2.2
			c-1.9-0.8-3.2-1.6-3.8-2.5c-0.7-0.9-1-2-1-3.4c0-1.8,0.9-3.3,2.9-4.3c2-1,4.5-1.6,7.6-1.6c2.6,0,4.9,0.4,6.8,1
			c1.8,0.6,3.6,1.7,5.3,3.2c1.4,1.3,2.9,1.9,4.7,1.9c1.1,0,2-0.2,2.8-0.8c1.1-0.9,1.7-1.9,1.7-3.1c0-1-0.5-2.1-1.3-3.2
			C453.3,28.5,450.5,26.5,447.1,25.1L447.1,25.1z"/>
		<path id="path368883" class="st0" d="M520,73.9c0-1.2-0.4-2.2-1.1-3l-19.4-23.8l18.4-16.4c1-0.8,1.6-2,1.6-3.4
			c0-1.2-0.5-2.2-1.3-3.1c-0.9-1-2-1.6-3.4-1.6c-1.2,0-2.3,0.5-3.1,1.3l-24.3,21.7V4.9c0-1.4-0.5-2.6-1.4-3.5
			c-0.9-0.9-2.1-1.4-3.5-1.4c-1.5,0-2.7,0.5-3.6,1.4c-0.9,0.9-1.3,2.1-1.3,3.5v68.3c0,1.5,0.4,2.7,1.3,3.6c0.9,0.9,2.1,1.3,3.6,1.3
			c1.4,0,2.6-0.4,3.5-1.3c0.9-0.9,1.4-2.1,1.4-3.6V57.9l5-4.4l19,23.5c0.9,1.2,2.1,1.8,3.6,1.8c1.1,0,2.2-0.4,3.2-1.2
			C519.4,76.6,520,75.4,520,73.9z"/>
	</g>
	<g id="tagline">
	</g>
</g>
</svg>
