<?xml version="1.0" encoding="utf-8"?>
<!-- Generator: Adobe Illustrator 21.0.2, SVG Export Plug-In . SVG Version: 6.00 Build 0)  -->
<svg version="1.1"
	 id="svg12884" xmlns:cc="http://creativecommons.org/ns#" xmlns:dc="http://purl.org/dc/elements/1.1/" xmlns:rdf="http://www.w3.org/1999/02/22-rdf-syntax-ns#" xmlns:svg="http://www.w3.org/2000/svg"
	 xmlns="http://www.w3.org/2000/svg" xmlns:xlink="http://www.w3.org/1999/xlink" x="0px" y="0px" viewBox="0 0 277.2 75"
	 style="enable-background:new 0 0 277.2 75;" xml:space="preserve">
<style type="text/css">
	.st0{fill:#00A200;}
</style>
<g id="logo-group">
	<g id="title">
		<path id="path12892" class="st0" d="M31.2,20.8c-3.3,0-5.7,1.8-7.1,5.4s-2.2,9.6-2.2,18v5.9c0,7.5,0.8,12.9,2.5,16.1
			c1.7,3.3,4.7,4.9,9.2,4.9c4.5,0,8-1.5,10.7-4.5c2.6-3,4.3-6.5,5.1-10.3l2,0.2c-1.4,6.5-4.1,11.2-7.9,14.1
			c-3.9,2.9-9.3,4.4-16.2,4.4c-8.8,0-15.5-2.3-20.2-7c-4.7-4.8-7-11.7-7-20.8C0,38,2.6,31,7.9,26.1c5.4-4.9,12.8-7.4,22.3-7.4
			c6.7,0,11.9,1.3,15.4,4c3.6,2.6,5.3,5.8,5.3,9.8s-0.9,6.8-2.6,8.6c-1.7,1.8-4,2.7-7,2.7c-2.9,0-5.3-0.8-7.1-2.4
			c-1.8-1.6-2.7-3.9-2.7-7c0-1.4,0.2-2.7,0.6-4.1h3.7c0.5-1.5,0.8-2.9,0.8-4.1C36.6,22.6,34.8,20.8,31.2,20.8L31.2,20.8z"/>
		<path id="path12894" class="st0" d="M90.8,51.5v-9.6c0-7.3-0.4-12.7-1.2-16c-0.8-3.4-2.6-5.1-5.4-5.1c-1.7,0-3,0.5-4.1,1.5
			c-1,0.9-1.7,2.5-2.2,4.7c-0.7,3.4-1,8.6-1,15.5v8.8c0,8.2,0.2,13.2,0.7,14.9c0.5,1.7,1.1,3,1.6,4.1c0.8,1.8,2.5,2.7,4.9,2.7
			c2.9,0,4.9-1.7,5.8-5.1C90.4,65.4,90.8,60,90.8,51.5L90.8,51.5z M83.8,75c-9.5,0-16.6-2.4-21.4-7.3C57.5,62.9,55.1,56,55.1,47
			c0-9.1,2.6-16,7.7-20.9c5.2-4.9,12.5-7.4,21.9-7.4s16.4,2.3,21,6.8c4.6,4.5,6.9,11.3,6.9,20.5C112.6,65.3,103,75,83.8,75L83.8,75z
			"/>
		<path id="path12896" class="st0" d="M116,19.8h27.3v10.4c1.2-3.5,3.1-6.3,5.6-8.4c2.5-2.1,6.3-3.2,11.3-3.2
			c11.7,0,17.6,6.3,17.6,18.9v34.1h6.4v2H152v-2h4.7V34.9c0-4.5-0.3-7.4-0.9-8.7c-0.6-1.4-1.7-2-3.3-2c-2.4,0-4.6,1.6-6.5,4.8
			c-1.8,3.2-2.7,7-2.7,11.6v31.3h4.9v2H116v-2h6.2V21.9H116V19.8z"/>
		<path id="path12898" class="st0" d="M188.1,75V54.7h1.4c2,6.6,4.6,11.2,7.9,13.8c3.3,2.6,7.5,4,12.5,4c7.7,0,11.6-2.5,11.6-7.4
			c0-2.1-0.9-3.7-2.8-4.8c-2.9-1.7-6.7-2.9-11.3-3.9c-5.1-1.4-9.5-3.2-12.9-5.4c-4.2-2.7-6.2-7-6.2-12.9c0-5.9,1.8-10.6,5.4-14.1
			c3.6-3.6,8.5-5.3,14.5-5.3c3.7,0,7.5,0.9,11.5,2.6c1.4,0.6,2.5,0.9,3.3,0.9c0.8,0,1.4-0.3,1.9-0.8c0.5-0.5,1.2-1.5,1.9-2.9h1.2
			v17.4h-1.4c-3.9-9.8-9.8-14.7-17.9-14.7c-3.6,0-6.2,0.6-7.9,1.9c-1.7,1.2-2.6,2.8-2.6,4.7c0,1.1,0.3,2,0.8,2.7
			c0.5,0.6,0.9,1.1,1.2,1.4c0.3,0.3,0.8,0.6,1.5,1c0.7,0.3,1.2,0.6,1.7,0.8c0.5,0.2,1.1,0.4,2,0.7c1,0.3,1.7,0.5,2.2,0.6
			c5.1,1.3,8.8,2.4,11.1,3.4c2.3,0.9,4.4,2,6.5,3.4c4.2,2.9,6.2,7.5,6.2,14c0,6.4-1.9,11.2-5.7,14.5c-3.8,3.3-9,4.9-15.5,4.9
			c-4.7,0-9.2-1.1-13.6-3.3c-0.9-0.6-1.6-0.9-2.2-0.9c-1.7,0-3.3,1.4-4.9,4.2L188.1,75z"/>
		<path id="path12900" class="st0" d="M239.3,57.6V21.9H233v-2h6.2V5.2L260.4,0v19.8h14.7v2h-14.7v38.2c0,3.6,0.3,6.2,1,7.8
			c0.8,1.7,2.3,2.5,4.5,2.5c2.3,0,4.2-1.1,5.9-3.4c1.7-2.3,2.9-5.4,3.4-9.3l1.9,0.2c-0.6,5.2-2.3,9.4-5,12.5
			c-2.7,3-7.2,4.5-13.5,4.5c-6.3,0-11.1-1.2-14.4-3.7C240.9,68.7,239.3,64.2,239.3,57.6L239.3,57.6z"/>
	</g>
	<g id="tagline">
	</g>
</g>
</svg>
