<?xml version="1.0" encoding="utf-8"?>
<!-- Generator: Adobe Illustrator 21.0.2, SVG Export Plug-In . SVG Version: 6.00 Build 0)  -->
<svg version="1.1"
	 id="svg420589" xmlns:cc="http://creativecommons.org/ns#" xmlns:dc="http://purl.org/dc/elements/1.1/" xmlns:rdf="http://www.w3.org/1999/02/22-rdf-syntax-ns#" xmlns:svg="http://www.w3.org/2000/svg"
	 xmlns="http://www.w3.org/2000/svg" xmlns:xlink="http://www.w3.org/1999/xlink" x="0px" y="0px" viewBox="0 0 733.5 147.9"
	 style="enable-background:new 0 0 733.5 147.9;" xml:space="preserve">
<style type="text/css">
	.st0{fill:#FFC583;}
</style>
<g id="logo-group">
	<g id="title">
		<path id="path420597" class="st0" d="M51.7,61.4H35.4v-9.5c0-2.2-0.4-3.6-1.1-4.2c-0.7-0.7-2.2-1.1-4.4-1.1H22
			c-2.2,0-3.7,0.4-4.4,1.1c-0.7,0.6-1.1,2-1.1,4.2v52c0,2.2,0.4,3.7,1.1,4.4c0.7,0.6,2.2,0.9,4.4,0.9h7.9c2.2,0,3.7-0.3,4.4-0.9
			c0.7-0.7,1.1-2.2,1.1-4.4v-9.5h16.3v12.1c0,10.7-5.7,16.1-17.2,16.1H17c-11.4,0-17-5.4-17-16.1v-57c0-10.9,5.7-16.3,17-16.3h17.4
			c11.5,0,17.2,5.4,17.2,16.3V61.4z"/>
		<path id="path420599" class="st0" d="M94.2,33.2h19.6c11.4,0,17,5.4,17,16.3v57c0,10.7-5.7,16.1-17,16.1H94.2
			c-11.2,0-16.9-5.4-16.9-16.1v-57C77.3,38.6,82.9,33.2,94.2,33.2L94.2,33.2z M114.5,104.1V51.7c0-2.2-0.4-3.7-1.1-4.4
			c-0.7-0.7-2.2-1.1-4.4-1.1H98.9c-2.2,0-3.7,0.4-4.4,1.1c-0.6,0.7-0.9,2.2-0.9,4.4v52.4c0,2.2,0.3,3.7,0.9,4.4
			c0.7,0.7,2.2,1.1,4.4,1.1H109c2.2,0,3.7-0.4,4.4-1.1C114.1,107.7,114.5,106.3,114.5,104.1z"/>
		<path id="path420601" class="st0" d="M186.4,33.2h6.4c11.1,0,16.7,5.4,16.7,16.3v73.1H193V51.8c0-2.2-0.4-3.6-1.1-4.2
			c-0.7-0.7-2.2-1.1-4.4-1.1h-6.4c-2.2,0-3.8,0.5-4.8,1.5c-0.9,1-1.3,2.6-1.3,4.9v69.6h-16.5V33.2h16.5v7.1
			C176.7,35.5,180.5,33.2,186.4,33.2L186.4,33.2z"/>
		<path id="path420603" class="st0" d="M268.1,104.6V89.8c0-2.2-0.4-3.6-1.1-4.2c-0.7-0.7-2.2-1.1-4.4-1.1h-9.3
			c-11.4,0-17-5.4-17-16.1V49.5c0-10.9,5.7-16.3,17-16.3h13.4c11.5,0,17.2,5.4,17.2,16.3v8.6h-16.1v-7c0-2.2-0.4-3.6-1.1-4.2
			c-0.7-0.7-2.2-1.1-4.4-1.1h-4.4c-2.2,0-3.7,0.4-4.4,1.1c-0.7,0.6-1.1,2-1.1,4.2v15.4c0,2.2,0.4,3.7,1.1,4.4
			c0.7,0.6,2.2,0.9,4.4,0.9h9.5c11.2,0,16.9,5.4,16.9,16.3v18.3c0,10.7-5.7,16.1-17,16.1h-13.6c-11.4,0-17-5.4-17-16.1v-8.8h16.1v7
			c0,2.2,0.4,3.7,1.1,4.4c0.7,0.6,2.2,0.9,4.4,0.9h4.4c2.2,0,3.7-0.3,4.4-0.9C267.7,108.3,268.1,106.8,268.1,104.6L268.1,104.6z"/>
		<path id="path420605" class="st0" d="M327,33.2h19.6c11.4,0,17,5.4,17,16.3v57c0,10.7-5.7,16.1-17,16.1H327
			c-11.2,0-16.9-5.4-16.9-16.1v-57C310.2,38.6,315.8,33.2,327,33.2L327,33.2z M347.3,104.1V51.7c0-2.2-0.4-3.7-1.1-4.4
			c-0.7-0.7-2.2-1.1-4.4-1.1h-10.1c-2.2,0-3.7,0.4-4.4,1.1c-0.6,0.7-0.9,2.2-0.9,4.4v52.4c0,2.2,0.3,3.7,0.9,4.4
			c0.7,0.7,2.2,1.1,4.4,1.1h10.1c2.2,0,3.7-0.4,4.4-1.1C347,107.7,347.3,106.3,347.3,104.1z"/>
		<path id="path420607" class="st0" d="M407.9,122.6h-16.5V0h16.5V122.6z"/>
		<path id="path420609" class="st0" d="M453.4,33.2h18c11.5,0,17.2,5.4,17.2,16.3V83h-36.1v21.3c0,2.1,0.4,3.5,1.1,4.2
			s2.2,1.1,4.4,1.1h8.4c2.2,0,3.7-0.4,4.4-1.1s1.1-2.2,1.1-4.4v-7.3H488v9.7c0,10.7-5.7,16.1-17,16.1h-17.6c-11.4,0-17-5.4-17-16.1
			v-57C436.3,38.6,442,33.2,453.4,33.2L453.4,33.2z M452.5,70.9h19.8V51.5c0-2.1-0.4-3.5-1.1-4.2c-0.6-0.7-2-1.1-4.2-1.1h-9
			c-2.2,0-3.7,0.4-4.4,1.1c-0.7,0.7-1.1,2.1-1.1,4.2L452.5,70.9z"/>
		<path id="path420611" class="st0" d="M513.1,122.6V100h18.5v22.5H513.1z"/>
		<path id="path420613" class="st0" d="M574.5,122.6h-16.5V0h16.5V122.6z"/>
		<path id="path420615" class="st0" d="M619.3,33.2h19.6c11.4,0,17,5.4,17,16.3v57c0,10.7-5.7,16.1-17,16.1h-19.6
			c-11.2,0-16.9-5.4-16.9-16.1v-57C602.4,38.6,608,33.2,619.3,33.2L619.3,33.2z M639.6,104.1V51.7c0-2.2-0.4-3.7-1.1-4.4
			c-0.7-0.7-2.2-1.1-4.4-1.1H624c-2.2,0-3.7,0.4-4.4,1.1c-0.6,0.7-0.9,2.2-0.9,4.4v52.4c0,2.2,0.3,3.7,0.9,4.4
			c0.7,0.7,2.2,1.1,4.4,1.1h10.1c2.2,0,3.7-0.4,4.4-1.1C639.3,107.7,639.6,106.3,639.6,104.1z"/>
		<path id="path420617" class="st0" d="M717,33.2h16.5v98.6c0,10.7-5.7,16.1-17.2,16.1h-30.6v-13h25.8c2.2,0,3.7-0.4,4.4-1.1
			c0.7-0.7,1.1-2.1,1.1-4.2v-15.2c-1.6,4.8-5.4,7.1-11.4,7.1h-6.6c-11,0-16.5-5.4-16.5-16.3V49.5c0-10.9,5.5-16.3,16.5-16.3h6.6
			c6,0,9.8,2.4,11.4,7.1V33.2z M704.6,108.1h6.4c2.2,0,3.7-0.5,4.6-1.5c1-1,1.5-2.6,1.5-4.9V52.9c0-2.3-0.5-4-1.5-4.9
			c-0.9-1-2.4-1.5-4.6-1.5h-6.4c-2.2,0-3.7,0.4-4.4,1.1c-0.7,0.6-1.1,2-1.1,4.2v50.9c0,2.1,0.4,3.5,1.1,4.2
			C700.9,107.7,702.4,108.1,704.6,108.1z"/>
	</g>
	<g id="tagline">
	</g>
</g>
</svg>
