<?xml version="1.0" encoding="utf-8"?>
<!-- Generator: Adobe Illustrator 21.0.2, SVG Export Plug-In . SVG Version: 6.00 Build 0)  -->
<svg version="1.1"
	 id="svg674379" xmlns:cc="http://creativecommons.org/ns#" xmlns:dc="http://purl.org/dc/elements/1.1/" xmlns:rdf="http://www.w3.org/1999/02/22-rdf-syntax-ns#" xmlns:svg="http://www.w3.org/2000/svg"
	 xmlns="http://www.w3.org/2000/svg" xmlns:xlink="http://www.w3.org/1999/xlink" x="0px" y="0px" viewBox="0 0 488.8 115.4"
	 style="enable-background:new 0 0 488.8 115.4;" xml:space="preserve">
<style type="text/css">
	.st0{fill:#F94649;}
</style>
<g id="logo-group">
	<g id="title">
		<path id="path674387" class="st0" d="M33.3,5c0.8,0.2,1.3-0.2,1.3-0.8V1.6c0-0.6-0.3-0.9-0.9-1.1C30.5,0.2,26.2,0,24,0
			C9.1,0,0,9.6,0,25.6v87.3c0,0.6,0.5,0.9,0.9,0.9h3.1c0.6,0,0.9-0.3,0.9-0.9V38h27.5c0.5,0,0.9-0.5,0.9-1.1v-2.7
			c0-0.5-0.5-0.9-0.9-0.9H5v-7.7c0-13.2,6.6-21,19.3-21C26.4,4.6,30.3,4.7,33.3,5L33.3,5z"/>
		<path id="path674389" class="st0" d="M106.8,85.9V61.1c0-16.5-11.3-29.5-32.7-29.5c-21.2,0-32.7,13-32.7,29.5v24.8
			c0,16.6,11.5,29.5,32.7,29.5C95.5,115.4,106.8,102.6,106.8,85.9z M46.5,85.9V61.1c0-13.8,9.3-24.8,27.6-24.8
			c18.5,0,27.6,11,27.6,24.8v24.8c0,14-9.1,25-27.6,25C55.8,110.9,46.5,99.9,46.5,85.9z"/>
		<path id="path674391" class="st0" d="M131.9,113.9c0.6,0,0.9-0.3,0.9-0.9V40.4c6.8-2.7,14.9-4.1,22.5-4.1c5.2,0,10.7,0.5,15.6,1.3
			c0.6,0.2,0.9-0.2,0.9-0.8v-2.7c0-0.6-0.2-0.9-0.9-1.1c-5-0.8-10.5-1.4-15.9-1.4c-9,0-18.8,1.9-26.4,5.5c-0.5,0.2-0.8,0.6-0.8,1.1
			v74.8c0,0.6,0.5,0.9,0.9,0.9L131.9,113.9z"/>
		<path id="path674393" class="st0" d="M195,59.1h53.7c0.6,0,1.1-0.3,1.1-0.9v-3c0-0.6-0.5-0.9-1.1-0.9H195V6.4h57
			c0.6,0,0.9-0.3,0.9-0.9v-3c0-0.6-0.3-0.9-0.9-0.9h-61.3c-0.6,0-1.1,0.3-1.1,0.9v110.4c0,0.6,0.5,0.9,1.1,0.9h63.6
			c0.6,0,0.9-0.3,0.9-0.9v-3c0-0.6-0.3-0.9-0.9-0.9H195L195,59.1z"/>
		<path id="path674395" class="st0" d="M273.1,39.6c-0.3,0.3-0.2,0.8,0,1.3l1.4,2.2c0.3,0.3,0.8,0.5,1.4,0.2
			c6-3.8,15.2-6.9,25.1-6.9c17.4,0,24.2,9.4,24.2,24.3v8.2c-6.3-1.4-14.9-3-24.2-3c-20.3,0-32.2,8.8-32.2,24.5
			c0,15.9,13.8,25.1,32.2,25.1c11.6,0,21.8-2.7,28.4-5.5c0.6-0.2,0.8-0.8,0.8-1.1V60.5c0-17.6-9.3-28.9-29.1-28.9
			C290,31.6,279.9,34.9,273.1,39.6L273.1,39.6z M273.9,90.3c0-12.7,9.4-19.9,27.2-19.9c9,0,18.1,1.4,24.2,2.8v33.3
			c-5.8,2.2-14,4.4-24.2,4.4C285.2,110.9,273.9,102.9,273.9,90.3z"/>
		<path id="path674397" class="st0" d="M409,105.7c0.6-0.3,0.6-0.9,0.3-1.4l-1.6-2c-0.3-0.5-0.8-0.6-1.4-0.2
			c-7.9,5.8-15.7,8.8-24.8,8.8c-16.6,0-26.1-11-26.1-24.5V60.6c0-13.4,9.3-24.3,26.1-24.3c8.5,0,15.6,2.2,22.8,7.4
			c0.6,0.5,0.9,0.2,1.4-0.2l1.4-2.2c0.3-0.5,0.3-0.9-0.3-1.4c-7.7-5.5-15.7-8.3-25.1-8.3c-19.6,0-31.3,12.9-31.3,29.1v25.8
			c0,16.2,11.6,29.1,31.3,29.1C392.2,115.4,400.8,112.1,409,105.7L409,105.7z"/>
		<path id="path674399" class="st0" d="M431.1,37.5v-35c0-0.6-0.3-0.9-0.9-0.9h-3.1c-0.5,0-0.9,0.3-0.9,0.9v110.4
			c0,0.6,0.5,0.9,0.9,0.9h3.1c0.6,0,0.9-0.3,0.9-0.9V42.4c7.1-3.8,15.7-6.1,24.5-6.1c18.1,0,28.1,8.5,28.1,27.2v49.5
			c0,0.6,0.5,0.9,1.1,0.9h3c0.6,0,0.9-0.3,0.9-0.9V63.5c0-21.7-12.6-31.9-33-31.9C447,31.6,438.5,33.9,431.1,37.5z"/>
	</g>
	<g id="tagline">
	</g>
</g>
</svg>
