<?xml version="1.0" encoding="utf-8"?>
<!-- Generator: Adobe Illustrator 21.0.2, SVG Export Plug-In . SVG Version: 6.00 Build 0)  -->
<svg version="1.1"
	 id="svg74060" xmlns:cc="http://creativecommons.org/ns#" xmlns:dc="http://purl.org/dc/elements/1.1/" xmlns:rdf="http://www.w3.org/1999/02/22-rdf-syntax-ns#" xmlns:svg="http://www.w3.org/2000/svg"
	 xmlns="http://www.w3.org/2000/svg" xmlns:xlink="http://www.w3.org/1999/xlink" x="0px" y="0px" viewBox="0 0 520 71.3"
	 style="enable-background:new 0 0 520 71.3;" xml:space="preserve">
<style type="text/css">
	.st0{fill:#F5BD12;}
</style>
<g id="logo-group">
	<g id="title">
		<path id="path74068" class="st0" d="M43.1,33.4H3.3V1.6C3.3,1.2,3,1,2.7,1h-2C0.3,1,0,1.2,0,1.6v68.1c0,0.4,0.3,0.6,0.7,0.6h2
			c0.3,0,0.6-0.2,0.6-0.6V36.4h39.8v33.3c0,0.4,0.3,0.6,0.7,0.6h1.9c0.4,0,0.7-0.2,0.7-0.6V1.6c0-0.4-0.3-0.6-0.7-0.6h-1.9
			c-0.4,0-0.7,0.2-0.7,0.6V33.4z"/>
		<path id="path74070" class="st0" d="M69.1,70.3c0.3,0,0.5-0.2,0.6-0.5l7.9-21.2h32.5l7.9,21.2c0.2,0.3,0.4,0.5,0.7,0.5h2.2
			c0.4,0,0.6-0.3,0.5-0.7L95.9,1.5C95.8,1.2,95.5,1,95.2,1h-2.7c-0.2,0-0.5,0.2-0.6,0.5L66.4,69.6c-0.1,0.4,0.1,0.7,0.5,0.7H69.1z
			 M93.7,4.9H94l15,40.6H78.7L93.7,4.9z"/>
		<path id="path74072" class="st0" d="M183.6,63.3c0.4-0.3,0.4-0.6,0.2-0.9l-1.2-1.6c-0.2-0.3-0.5-0.4-0.8-0.1
			c-5.7,4.9-12.7,7.5-20.1,7.5c-13.4,0-20.2-8.4-20.2-20V23c0-11.5,6.7-20,20-20c6.8,0,13.4,2.3,18.7,6.6c0.4,0.3,0.7,0.2,0.9-0.1
			l1.1-1.6c0.3-0.2,0.3-0.6-0.1-0.8C176.2,2.3,169,0,161.7,0c-14.7,0-23.3,9.4-23.3,23v25.3c0,13.6,8.4,23,23.5,23
			C169.7,71.3,177.4,68.8,183.6,63.3L183.6,63.3z"/>
		<path id="path74074" class="st0" d="M208.6,70.3c0.3,0,0.6-0.2,0.6-0.6V43.9l9.6-9.4l31,35.4c0.2,0.3,0.5,0.4,0.8,0.4h2.7
			c0.5,0,0.8-0.3,0.4-0.8L221,32.3l30.8-30.5c0.4-0.4,0.1-0.8-0.4-0.8h-2.7c-0.3,0-0.6,0.1-0.9,0.4l-38.7,38.3V1.6
			c0-0.4-0.3-0.6-0.6-0.6h-2c-0.4,0-0.7,0.2-0.7,0.6v68.1c0,0.4,0.3,0.6,0.7,0.6L208.6,70.3z"/>
		<path id="path74076" class="st0" d="M313,63.3c0.4-0.3,0.4-0.6,0.2-0.9l-1.2-1.6c-0.2-0.3-0.5-0.4-0.8-0.1
			c-5.7,4.9-12.7,7.5-20.1,7.5c-13.4,0-20.2-8.4-20.2-20V23c0-11.5,6.7-20,20-20c6.8,0,13.4,2.3,18.7,6.6c0.4,0.3,0.7,0.2,0.9-0.1
			l1.1-1.6c0.3-0.2,0.3-0.6-0.1-0.8c-6-4.8-13.2-7.2-20.5-7.2c-14.7,0-23.3,9.4-23.3,23v25.3c0,13.6,8.4,23,23.5,23
			C299.1,71.3,306.8,68.8,313,63.3L313,63.3z"/>
		<path id="path74078" class="st0" d="M382.3,46.9V1.6c0-0.4-0.3-0.6-0.7-0.6h-2c-0.4,0-0.6,0.2-0.6,0.6v45.3
			c0,12.8-7.3,21.2-20.6,21.2c-13.3,0-20.5-8.4-20.5-21.2V1.6c0-0.4-0.2-0.6-0.6-0.6h-2c-0.4,0-0.7,0.2-0.7,0.6v45.4
			c0,14.3,8.7,24.1,23.8,24.1C373.6,71.1,382.3,61.3,382.3,46.9L382.3,46.9z"/>
		<path id="path74080" class="st0" d="M452.5,17.7c0-9-5.4-16.8-21.1-16.8h-20.6c-0.4,0-0.7,0.2-0.7,0.6v68.1c0,0.4,0.3,0.6,0.7,0.6
			h20.6c15.5,0,23.9-7.1,23.9-19.2c0-9.7-5-16.2-14.3-18C448,31,452.5,25.6,452.5,17.7z M413.3,67.3V34.6h19.8
			c13.2,0,19,6.6,19,16.5c0,10.2-6.9,16.2-20.7,16.2H413.3z M449.2,17.7c0,8.8-6,13.9-16.1,13.9h-19.8V4h18
			C445.2,4,449.2,10.6,449.2,17.7L449.2,17.7z"/>
		<path id="path74082" class="st0" d="M482.8,36.4h33.2c0.4,0,0.7-0.2,0.7-0.6V34c0-0.4-0.3-0.6-0.7-0.6h-33.2V4H518
			c0.4,0,0.6-0.2,0.6-0.6V1.6c0-0.4-0.2-0.6-0.6-0.6h-37.8c-0.4,0-0.7,0.2-0.7,0.6v68.1c0,0.4,0.3,0.6,0.7,0.6h39.3
			c0.4,0,0.6-0.2,0.6-0.6v-1.8c0-0.4-0.2-0.6-0.6-0.6h-36.6L482.8,36.4z"/>
	</g>
	<g id="tagline">
	</g>
</g>
</svg>
