<?xml version="1.0" encoding="utf-8"?>
<!-- Generator: Adobe Illustrator 21.0.2, SVG Export Plug-In . SVG Version: 6.00 Build 0)  -->
<svg version="1.1"
	 id="svg447867" xmlns:cc="http://creativecommons.org/ns#" xmlns:dc="http://purl.org/dc/elements/1.1/" xmlns:rdf="http://www.w3.org/1999/02/22-rdf-syntax-ns#" xmlns:svg="http://www.w3.org/2000/svg"
	 xmlns="http://www.w3.org/2000/svg" xmlns:xlink="http://www.w3.org/1999/xlink" x="0px" y="0px" viewBox="0 0 485.1 150"
	 style="enable-background:new 0 0 485.1 150;" xml:space="preserve">
<style type="text/css">
	.st0{fill:#BBB8B8;}
</style>
<g id="logo-group">
	<g id="title">
		<path id="path447875" class="st0" d="M32,150c11.9,0,23.3-4.7,31.8-13.2c8.5-8.5,13.2-19.9,13.2-32V1.3l-29.7,9.5v94
			c0,8.5-7,15.5-15.3,15.5c-4.2,0-8.1-1.7-11-4.5l-21,21C8.5,145.3,19.9,150,32,150L32,150z"/>
		<path id="path447877" class="st0" d="M142.9,150c13.4,0,25.9-3.8,35.2-11c5.1-4,9.1-8.7,11.9-14.2c3-5.7,4.5-12.3,4.5-19.3
			c0-12.9-4.5-22.7-13.6-30.3c-7.8-6.2-18-10.2-28.8-14.6c-1.1-0.4-2.3-0.9-3.6-1.3l0,0c-7.6-3-14.8-5.7-19.3-8.9
			c-3.2-2.3-5.3-4.5-5.1-8.9c0-9.6,9.5-13.2,17.4-13.2c8.5,0,18.7,4.5,28,12.1l5.3,4.4L193,21.4l-4.9-4.2C174.1,6.1,158,0,141.5,0
			c-12.9,0-24.8,4.4-33.7,11.9c-9.1,7.9-14,18.7-14,30.3c0,6.8,1.3,12.9,4.2,18.2c2.5,4.9,6.1,9.1,10.8,13.1
			c8.3,6.4,18.7,10.6,29.3,14.6c0.8,0.4,1.5,0.6,2.1,0.8c7.8,3,14.6,5.5,18.7,8.7c3.6,2.6,5.1,5.5,5.1,10c0,4.4-1.7,7.6-4.9,10
			c-3.8,2.6-9.5,4-16.1,4c-5.7,0-11.7-1.3-17-3.8c-5.9-2.8-11-6.8-14.9-11.7l-5.1-6.4L86.5,123l4,4.2
			C104.3,141.9,122.8,150,142.9,150L142.9,150z"/>
		<path id="path447879" class="st0" d="M275.1,149.6c10,0,19.9-1.9,29.1-5.9c8.9-3.6,16.8-9.1,23.6-15.9
			c6.8-6.8,12.3-14.8,16.1-23.6c3.8-9.3,5.9-19.1,5.9-29.1c0-10-2.1-19.9-5.9-29.1c-3.8-8.9-9.3-16.8-16.1-23.6
			c-6.8-6.8-14.8-12.3-23.6-16.1c-9.3-3.8-19.1-5.9-29.1-5.9c-10,0-19.9,2.1-29.1,5.9c-8.9,3.8-16.8,9.3-23.6,16.1
			c-6.8,6.8-12.3,14.8-15.9,23.6c-4,9.3-5.9,19.1-5.9,29.1c0,10,1.9,19.9,5.9,29.1c3.6,8.9,9.1,16.8,15.9,23.6
			c6.8,6.8,14.8,12.3,23.6,15.9C255.2,147.7,265.1,149.6,275.1,149.6L275.1,149.6z M275.1,30.1c11.9,0,23.3,4.7,31.8,13.2
			s13.2,19.9,13.2,31.8c0,12.1-4.7,23.3-13.2,31.8s-19.7,13.2-31.8,13.2c-11.9,0-23.3-4.7-31.8-13.2s-13.2-19.7-13.2-31.8
			c0-11.9,4.7-23.3,13.2-31.8S263.2,30.1,275.1,30.1z"/>
		<path id="path447881" class="st0" d="M458.1,148.9h27.1V1.3h-29.7v93.1l-66-93.1h-26.3v147.5h29.7V56.7L458.1,148.9z"/>
	</g>
	<g id="tagline">
	</g>
</g>
</svg>
