<?xml version="1.0" encoding="utf-8"?>
<!-- Generator: Adobe Illustrator 21.0.2, SVG Export Plug-In . SVG Version: 6.00 Build 0)  -->
<svg version="1.1"
	 id="svg316566" xmlns:cc="http://creativecommons.org/ns#" xmlns:dc="http://purl.org/dc/elements/1.1/" xmlns:rdf="http://www.w3.org/1999/02/22-rdf-syntax-ns#" xmlns:svg="http://www.w3.org/2000/svg"
	 xmlns="http://www.w3.org/2000/svg" xmlns:xlink="http://www.w3.org/1999/xlink" x="0px" y="0px" viewBox="0 0 310.3 100.7"
	 style="enable-background:new 0 0 310.3 100.7;" xml:space="preserve">
<style type="text/css">
	.st0{fill:#16B4DA;}
</style>
<g id="logo-group">
	<g id="title">
		<path id="path316574" class="st0" d="M42,78.7c0.6,0,0.8-0.3,0.3-0.9L14.7,46.5L41.2,23c0.3-0.4,0.2-0.9-0.3-0.9h-3
			c-0.3,0-0.7,0-0.9,0.3L3.5,52.1V0.7C3.5,0.2,3.3,0,2.9,0H0.7C0.3,0,0,0.2,0,0.7V78c0,0.4,0.3,0.7,0.7,0.7h2.2
			c0.4,0,0.7-0.2,0.7-0.7V56.5l8.7-7.6l26.1,29.4c0.2,0.3,0.6,0.4,0.9,0.4L42,78.7z"/>
		<path id="path316576" class="st0" d="M101.6,41.9c0-13.3-9-20.9-21.9-20.9s-21.9,7.6-21.9,20.9v17.8c0,12.7,10.3,20,21.9,20
			c9.4,0,16.2-4.2,20.8-8.5c0.4-0.2,0.4-0.6,0.1-0.9L99.4,69c-0.2-0.3-0.6-0.3-0.9-0.1c-4.2,3.7-10.1,7.7-18.7,7.7
			c-10,0-18.5-6.2-18.5-16.8v-7.3H101c0.3,0,0.7-0.2,0.7-0.7L101.6,41.9z M98.1,41.9v7.5H61.3v-7.5c0-11.3,7.3-17.6,18.4-17.6
			C90.7,24.3,98.1,30.7,98.1,41.9L98.1,41.9z"/>
		<path id="path316578" class="st0" d="M165.5,69.2c-4.8,2.5-10.3,4.1-16.4,4.1c-11.9,0-19.6-5.6-19.6-18V22.9
			c0-0.4-0.3-0.8-0.8-0.8h-2.1c-0.4,0-0.7,0.3-0.7,0.8v32.5c0,14.3,9.2,21.2,22.8,21.2c6.1,0,11.9-1.4,16.7-4v7.6
			c0.1,10.3-5.4,17.2-17.7,17.2c-7.9,0-13.5-3.5-18.5-7.8c-0.3-0.3-0.7-0.2-0.9,0.1l-1.2,1.4c-0.2,0.3-0.2,0.8,0,1
			c5.7,5.2,12.2,8.6,20.6,8.6c14.6,0,21.2-8.5,21.2-20.4V22.9c0-0.4-0.2-0.8-0.7-0.8h-2.2c-0.4,0-0.7,0.3-0.7,0.8V69.2z"/>
		<path id="path316580" class="st0" d="M236.4,22.1c-0.4,0-0.8,0.3-0.8,0.8v50.4c-4.8,1.9-10.6,3.3-16.6,3.3
			c-12.3,0-19.4-6.3-19.4-19V22.9c0-0.4-0.2-0.8-0.7-0.8h-2.2c-0.4,0-0.7,0.3-0.7,0.8v34.7c0,14.7,8.7,22.2,22.9,22.2
			c7,0,13.9-1.5,19.6-4.2c0.4-0.1,0.6-0.6,0.6-0.9V22.9c0-0.4-0.2-0.8-0.7-0.8L236.4,22.1z"/>
		<path id="path316582" class="st0" d="M266.9,25c-0.2,0.1-0.4,0.4-0.4,0.8v73.2c0,0.4,0.3,0.7,0.7,0.7h2.2c0.4,0,0.7-0.2,0.7-0.7
			V74.8c4.6,3.1,10.8,5,17.2,5c14.4,0,23.2-7.6,23.2-23.5V44.6c0-16.3-8.9-23.5-23.3-23.5C279.8,21,272.9,22.4,266.9,25L266.9,25z
			 M287,76.6c-6.2,0-12.2-2.1-17.1-5.4V27.3c5-1.9,10.9-3.1,17.1-3.1c12.5,0,19.7,6.1,19.7,20.4v11.7
			C306.7,70.4,299.7,76.6,287,76.6L287,76.6z"/>
	</g>
	<g id="tagline">
	</g>
</g>
</svg>
