<?xml version="1.0" encoding="utf-8"?>
<!-- Generator: Adobe Illustrator 21.0.2, SVG Export Plug-In . SVG Version: 6.00 Build 0)  -->
<svg version="1.1"
	 id="svg401373" xmlns:cc="http://creativecommons.org/ns#" xmlns:dc="http://purl.org/dc/elements/1.1/" xmlns:rdf="http://www.w3.org/1999/02/22-rdf-syntax-ns#" xmlns:svg="http://www.w3.org/2000/svg"
	 xmlns="http://www.w3.org/2000/svg" xmlns:xlink="http://www.w3.org/1999/xlink" x="0px" y="0px" viewBox="0 0 577.6 101"
	 style="enable-background:new 0 0 577.6 101;" xml:space="preserve">
<style type="text/css">
	.st0{fill:#235499;}
</style>
<g id="logo-group">
	<g id="title">
		<path id="path401381" class="st0" d="M90.2,35.8c-5.4-5.4-11.9-8.1-19.6-8.1c-7.7,0-14.2,2.7-19.6,8.1c-0.6,0.6-1.2,1.3-1.8,1.9
			c-0.5-0.6-1.2-1.3-1.7-1.9c-5.5-5.4-12.1-8.1-19.8-8.1s-14.2,2.7-19.6,8.1C2.7,41.3,0,47.9,0,55.6v38.5c0,1.8,0.5,3.2,1.8,4.5
			c1.3,1.3,2.8,1.9,4.6,1.9c1.7,0,3.2-0.6,4.5-1.9s1.9-2.7,1.9-4.5V55.6c0-4.1,1.4-7.7,4.4-10.7s6.4-4.4,10.5-4.4
			c4.2,0,7.7,1.4,10.7,4.4c3,3,4.4,6.5,4.4,10.7v38.5c0,1.8,0.6,3.2,1.9,4.5c1.3,1.3,2.7,1.9,4.5,1.9c1.8,0,3.3-0.6,4.5-1.9
			c1.3-1.3,1.9-2.7,1.9-4.5V55.6c0-2.7,0.6-5.3,2.1-7.6c1.3-2.3,3.1-4.1,5.4-5.4c2.3-1.4,4.9-2.1,7.6-2.1c4.1,0,7.7,1.4,10.5,4.4
			c3,3,4.5,6.5,4.5,10.7v38.5c0,1.8,0.5,3.2,1.8,4.5c1.3,1.3,2.8,1.9,4.6,1.9c1.7,0,3.2-0.6,4.5-1.9s1.9-2.7,1.9-4.5V55.6
			C98.4,47.9,95.6,41.3,90.2,35.8L90.2,35.8z"/>
		<path id="path401383" class="st0" d="M151.9,100.7c9.9,0,18.2-3.5,25.2-10.4c6.9-6.9,10.5-15.3,10.5-25.2S184,47,177,40
			c-6.9-6.9-15.3-10.5-25.2-10.5c-9.9,0-18.2,3.6-25.2,10.5s-10.4,15.3-10.4,25.2s3.5,18.2,10.4,25.2S142,100.7,151.9,100.7z
			 M151.9,41.8c6.4,0,11.9,2.3,16.6,6.8c4.5,4.6,6.8,10.1,6.8,16.6s-2.3,11.9-6.8,16.4c-4.6,4.6-10.1,6.8-16.6,6.8
			c-6.4,0-11.9-2.2-16.4-6.8c-4.6-4.5-6.8-10-6.8-16.4c0-6.4,2.2-11.9,6.8-16.6C140,44.1,145.5,41.8,151.9,41.8z"/>
		<path id="path401385" class="st0" d="M264.8,29.8c-1.8,0-3.3,0.6-4.6,1.9c-1.3,1.3-1.8,2.7-1.8,4.5v32c0,5.5-2.1,10.3-5.9,14.1
			c-4,4-8.6,5.9-14.1,5.9c-5.5,0-10.1-1.9-14.1-5.9c-3.9-3.9-5.8-8.6-5.8-14.1v-32c0-1.8-0.6-3.2-1.9-4.5c-1.3-1.3-2.7-1.9-4.5-1.9
			c-1.8,0-3.3,0.6-4.6,1.9c-1.3,1.3-1.8,2.7-1.8,4.5v32c0,9.1,3.1,16.8,9.5,23.2c6.4,6.4,14.1,9.6,23.2,9.6c9,0,16.8-3.2,23.2-9.6
			c6.4-6.4,9.6-14.1,9.6-23.2v-32c0-1.8-0.6-3.2-1.9-4.5C268,30.4,266.6,29.8,264.8,29.8L264.8,29.8z"/>
		<path id="path401387" class="st0" d="M353.6,100.6c1.8,0,3.3-0.6,4.6-1.9c1.3-1.3,1.8-2.8,1.8-4.6v-33c0-9-3.2-16.7-9.5-23.1
			c-6.4-6.4-14.2-9.6-23.2-9.6c-9.1,0-16.8,3.2-23.2,9.6c-6.4,6.4-9.6,14.1-9.6,23.1v33c0,1.8,0.6,3.3,1.9,4.6
			c1.3,1.3,2.8,1.8,4.5,1.8c1.8,0,3.3-0.5,4.6-1.8c1.3-1.3,1.8-2.8,1.8-4.6v-33c0-5.4,2.1-10.1,5.9-14c3.9-4,8.6-5.9,14.1-5.9
			s10.1,1.9,14.1,5.9c3.9,3.9,5.8,8.6,5.8,14v33.1c0,1.7,0.6,3.2,1.9,4.5C350.3,100,351.9,100.6,353.6,100.6L353.6,100.6z"/>
		<path id="path401389" class="st0" d="M411.1,87.4c-3.7,0-6.9-1.3-9.5-4c-2.7-2.6-4-5.8-4-9.5V43.8h11.4c1.5,0,3-0.5,4.1-1.7
			c1-1,1.7-2.4,1.7-4.1c0-1.5-0.6-3-1.7-4.1c-1.2-1-2.6-1.7-4.1-1.7h-11.4V14.1c0-1.8-0.6-3.2-1.9-4.5c-1.3-1.3-2.7-1.9-4.5-1.9
			s-3.3,0.6-4.6,1.9c-1.3,1.3-1.8,2.7-1.8,4.5v59.8c0,7.3,2.6,13.5,7.7,18.6c5.1,5.1,11.3,7.7,18.6,7.7c1.8,0,3.2-0.5,4.5-1.8
			c1.3-1.3,1.9-2.8,1.9-4.6c0-1.8-0.6-3.2-1.9-4.5C414.3,88,412.9,87.4,411.1,87.4z"/>
		<path id="path401391" class="st0" d="M463.4,100.7c8.5,0,15.9-2.6,22.5-8c1.4-1,2.1-2.4,2.3-4.1c0.1-1.8-0.3-3.2-1.4-4.6
			c-1-1.3-2.4-2.1-4.1-2.2c-1.7-0.1-3.2,0.3-4.5,1.4c-4.4,3.5-9.2,5.1-14.8,5.1c-6.4,0-11.9-2.2-16.4-6.8c-4.6-4.5-6.8-10-6.8-16.4
			c0-6.4,2.2-11.9,6.8-16.6c4.5-4.5,10-6.8,16.4-6.8c5.3,0,10,1.7,14.2,4.9c4.1,3.2,6.8,7.3,8.2,12.3h-22.5c-1.7,0-3.2,0.6-4.4,1.8
			c-1.2,1.2-1.8,2.7-1.8,4.4c0,1.7,0.6,3.2,1.8,4.4c1.2,1.2,2.7,1.8,4.4,1.8h29.5c1.7,0,3.1-0.6,4.2-1.8c1.3-1.2,1.9-2.7,1.9-4.4
			c0-9.9-3.6-18.2-10.5-25.2c-6.9-6.9-15.3-10.5-25.2-10.5s-18.2,3.6-25.2,10.5c-6.9,6.9-10.4,15.3-10.4,25.2s3.5,18.2,10.4,25.2
			C445.2,97.3,453.5,100.7,463.4,100.7L463.4,100.7z"/>
		<path id="path401393" class="st0" d="M516.7,90.3c6.9,7.1,15.3,10.5,25.2,10.5s18.2-3.5,25.2-10.5c6.9-6.9,10.5-15.3,10.5-25.2
			v-59c0-1.7-0.6-3.1-1.9-4.4c-1.2-1.2-2.6-1.8-4.2-1.8c-1.8,0-3.2,0.6-4.4,1.8c-1.3,1.3-1.8,2.7-1.8,4.4v32.1
			c-6.7-5.8-14.5-8.6-23.4-8.6c-9.9,0-18.2,3.5-25.2,10.4c-6.9,6.9-10.4,15.4-10.4,25.2C506.4,75.1,509.8,83.4,516.7,90.3z
			 M541.9,42c6.4,0,11.9,2.3,16.4,6.8c4.6,4.5,6.9,10,6.9,16.4c0,6.4-2.3,11.9-6.9,16.6c-4.5,4.5-10,6.8-16.4,6.8
			s-11.9-2.3-16.4-6.8c-4.6-4.6-6.8-10.1-6.8-16.6s2.2-11.9,6.8-16.4C530,44.3,535.5,42,541.9,42z"/>
	</g>
	<g id="tagline">
	</g>
</g>
</svg>
