<?xml version="1.0" encoding="utf-8"?>
<!-- Generator: Adobe Illustrator 21.0.2, SVG Export Plug-In . SVG Version: 6.00 Build 0)  -->
<svg version="1.1"
	 id="svg229238" xmlns:cc="http://creativecommons.org/ns#" xmlns:dc="http://purl.org/dc/elements/1.1/" xmlns:rdf="http://www.w3.org/1999/02/22-rdf-syntax-ns#" xmlns:svg="http://www.w3.org/2000/svg"
	 xmlns="http://www.w3.org/2000/svg" xmlns:xlink="http://www.w3.org/1999/xlink" x="0px" y="0px" viewBox="0 0 520 97.6"
	 style="enable-background:new 0 0 520 97.6;" xml:space="preserve">
<style type="text/css">
	.st0{fill:#FF494E;}
</style>
<g id="logo-group">
	<g id="title">
		<path id="path229246" class="st0" d="M51.6,32.9c-5.2-3-11-4.5-17.5-4.5c-6.7,0-12.5,1.5-17.7,4.5c-5.2,3-9.3,6.9-12.1,12.1
			C1.4,50.3,0,56.2,0,62.9c0,6.7,1.4,12.5,4.3,17.7c2.8,5.2,6.9,9.3,12.1,12.3c5.2,3,11,4.3,17.7,4.3c6.6,0,12.4-1.4,17.6-4.3
			c5.2-3,9.2-7.1,12.1-12.3c2.8-5.2,4.3-11,4.3-17.7s-1.5-12.6-4.5-17.8C60.8,39.9,56.8,35.9,51.6,32.9L51.6,32.9z M22.8,42.6
			c3.3-2,7.2-3,11.4-3s7.9,1,11.3,3c3.3,2,5.9,4.8,7.8,8.3c1.9,3.6,2.8,7.6,2.8,12s-1,8.5-2.8,12c-1.9,3.5-4.5,6.2-7.8,8.2
			s-7.1,3-11.3,3s-8-1-11.4-3s-5.9-4.7-7.8-8.2c-2-3.5-2.8-7.6-2.8-12s0.9-8.4,2.8-12C16.8,47.4,19.4,44.6,22.8,42.6z"/>
		<path id="path229248" class="st0" d="M158.9,43c-2.6-4.7-6.2-8.4-10.6-10.9c-4.3-2.2-9-3.5-14.2-3.6c-0.1,0-0.4-0.1-0.4-0.1h-28.5
			c-1.7,0-3.1,0.6-4.2,1.7c-1.2,1.2-1.7,2.6-1.7,4.2c0,0.1,0,0.4,0,0.5c0,0.2,0,0.4,0,0.5v55.2c0,1.9,0.5,3.3,1.7,4.6
			c1.2,1.2,2.7,1.7,4.6,1.7c1.9,0,3.3-0.5,4.6-1.7c1.1-1.2,1.7-2.7,1.7-4.6V55.6c0-3,0.7-5.6,2.4-8c1.6-2.4,3.8-4.2,6.7-5.7
			c2.8-1.4,6.1-2.1,9.5-2.1c5.9,0,10.6,1.7,14.2,5.2c3.6,3.5,5.4,8.5,5.4,15.1v30.5c0,1.9,0.5,3.3,1.7,4.6c1.2,1.2,2.7,1.7,4.6,1.7
			c1.7,0,3.2-0.5,4.5-1.7c1.2-1.2,1.9-2.7,1.9-4.6V60.1C162.7,53.4,161.3,47.7,158.9,43L158.9,43z"/>
		<path id="path229250" class="st0" d="M250,39.6c-6.4-7.4-14.6-11.1-24.3-11.1c-6.4,0-12.3,1.5-17.3,4.5c-5.2,3-9.2,7.1-12,12.3
			c-2.8,5.2-4.2,11.1-4.2,17.7c0,6.4,1.4,12.4,4.3,17.6c3,5.2,7.1,9.3,12.3,12.3c5.2,3,11,4.5,17.6,4.5c8.9,0,16.3-2.7,22.3-8.3
			c1-1,1.5-2.1,1.5-3.3c0-1.6-0.9-3.1-2.4-4.5c-1-0.7-2.1-1.1-3.2-1.1c-1.5,0-3.1,0.6-4.6,1.7c-3.5,3-8,4.3-13.6,4.3
			c-4.3,0-8.2-1-11.5-3s-5.9-4.7-7.8-8.2c-1.9-3.5-2.7-7.6-2.7-12c0-6.9,2-12.6,5.9-16.8s9-6.4,15.5-6.4c3.1,0,5.8,0.6,8.3,1.6
			s4.7,2.6,6.8,4.8c1.2,1.5,2.8,2.2,4.8,2.2c1,0,2-0.2,2.8-0.9c1.7-1.2,2.7-2.7,2.7-4.6C251.2,41.6,250.7,40.6,250,39.6L250,39.6z"
			/>
		<path id="path229252" class="st0" d="M281.4,1.7c-1.2,1.2-1.7,2.7-1.7,4.5v67.6c0,4.5,0.7,8.4,2.4,11.9c1.5,3.5,3.7,6.2,6.6,8.2
			c2.8,2,6.1,2.8,9.7,2.8h0.2c2.5,0,4.5-0.5,6.1-1.7c1.5-1.1,2.4-2.6,2.4-4.5c0-1.7-0.6-3.2-1.6-4.5c-1-1.1-2.4-1.7-4-1.7h-3.1
			c-1.9,0-3.3-1-4.5-3c-1.2-2-1.7-4.5-1.7-7.6V6.2c0-1.7-0.6-3.2-1.7-4.5c-1.2-1.1-2.7-1.7-4.5-1.7C284,0,282.5,0.6,281.4,1.7
			L281.4,1.7z"/>
		<path id="path229254" class="st0" d="M334.4,30.7c-1.2,1.2-1.7,2.7-1.7,4.6v55.1c0,1.9,0.5,3.3,1.7,4.6c1.2,1.2,2.7,1.7,4.6,1.7
			c1.9,0,3.3-0.5,4.6-1.7c1.1-1.2,1.7-2.7,1.7-4.6V35.3c0-1.9-0.6-3.3-1.7-4.6c-1.2-1.1-2.7-1.7-4.6-1.7
			C337.1,29,335.7,29.6,334.4,30.7z"/>
		<path id="path229256" class="st0" d="M435.3,39.6c-6.4-7.4-14.6-11.1-24.3-11.1c-6.4,0-12.3,1.5-17.3,4.5c-5.2,3-9.2,7.1-12,12.3
			c-2.8,5.2-4.2,11.1-4.2,17.7c0,6.4,1.4,12.4,4.3,17.6s7.1,9.3,12.3,12.3c5.2,3,11,4.5,17.6,4.5c8.9,0,16.3-2.7,22.3-8.3
			c1-1,1.5-2.1,1.5-3.3c0-1.6-0.9-3.1-2.4-4.5c-1-0.7-2.1-1.1-3.2-1.1c-1.5,0-3.1,0.6-4.6,1.7c-3.5,3-8,4.3-13.6,4.3
			c-4.3,0-8.2-1-11.5-3s-5.9-4.7-7.8-8.2s-2.7-7.6-2.7-12c0-6.9,2-12.6,5.9-16.8c4-4.2,9-6.4,15.5-6.4c3.1,0,5.8,0.6,8.3,1.6
			c2.5,1,4.7,2.6,6.8,4.8c1.2,1.5,2.8,2.2,4.8,2.2c1,0,2-0.2,2.8-0.9c1.7-1.2,2.7-2.7,2.7-4.6C436.6,41.6,436.1,40.6,435.3,39.6
			L435.3,39.6z"/>
		<path id="path229258" class="st0" d="M520,91.5c0-1.5-0.5-2.7-1.4-3.7l-24-29.5L517.4,38c1.2-1,2-2.5,2-4.2c0-1.5-0.6-2.7-1.6-3.8
			c-1.1-1.2-2.5-2-4.2-2c-1.5,0-2.8,0.6-3.8,1.6l-30.1,26.9V6.1c0-1.7-0.6-3.2-1.7-4.3c-1.1-1.1-2.6-1.7-4.3-1.7
			c-1.9,0-3.3,0.6-4.5,1.7s-1.6,2.6-1.6,4.3v84.6c0,1.9,0.5,3.3,1.6,4.5c1.1,1.1,2.6,1.6,4.5,1.6c1.7,0,3.2-0.5,4.3-1.6
			c1.1-1.1,1.7-2.6,1.7-4.5V71.7l6.2-5.4l23.5,29.1c1.1,1.5,2.6,2.2,4.5,2.2c1.4,0,2.7-0.5,4-1.5C519.3,94.9,520,93.4,520,91.5z"/>
	</g>
	<g id="tagline">
	</g>
</g>
</svg>
