<?xml version="1.0" encoding="utf-8"?>
<!-- Generator: Adobe Illustrator 21.0.2, SVG Export Plug-In . SVG Version: 6.00 Build 0)  -->
<svg version="1.1"
	 id="svg321603" xmlns:cc="http://creativecommons.org/ns#" xmlns:dc="http://purl.org/dc/elements/1.1/" xmlns:rdf="http://www.w3.org/1999/02/22-rdf-syntax-ns#" xmlns:svg="http://www.w3.org/2000/svg"
	 xmlns="http://www.w3.org/2000/svg" xmlns:xlink="http://www.w3.org/1999/xlink" x="0px" y="0px" viewBox="0 0 520 104.5"
	 style="enable-background:new 0 0 520 104.5;" xml:space="preserve">
<style type="text/css">
	.st0{fill:#0101FF;}
</style>
<g id="logo-group">
	<g id="title">
		<path id="path321611" class="st0" d="M31.9,83.1c4.3,0,8.5-0.9,12.4-2.5c3.8-1.7,7.3-3.9,10.2-6.8c2.9-3,5.1-6.4,6.8-10.2
			c1.7-3.9,2.5-8.2,2.5-12.4c0-4.4-0.8-8.5-2.5-12.4c-1.7-3.8-3.9-7.3-6.8-10.2c-3-2.9-6.4-5.1-10.2-6.8c-3.9-1.7-8.2-2.5-12.4-2.5
			s-8.5,0.8-12.4,2.5c-3.8,1.7-7.2,3.9-10.2,6.8c-2.9,3-5.1,6.4-6.8,10.2C0.9,42.7,0,46.9,0,51.2c0,4.3,0.9,8.5,2.5,12.4
			c1.7,3.8,3.9,7.2,6.8,10.2c3,2.9,6.4,5.1,10.2,6.8C23.4,82.2,27.6,83.1,31.9,83.1z M31.9,36.1C40.2,36.1,47,43,47,51.2
			s-6.8,15.1-15.1,15.1s-15.1-6.8-15.1-15.1S23.6,36.1,31.9,36.1z"/>
		<path id="path321613" class="st0" d="M146.2,38.9c-1.7-3.8-3.9-7.2-6.8-10.2c-3-2.9-6.4-5.1-10.2-6.8c-3.9-1.7-8.1-2.5-12.4-2.5
			c-4.3,0-8.5,0.8-12.4,2.5c-3.8,1.7-7.2,3.9-10.2,6.8c-2.9,2.9-5.1,6.4-6.8,10.2c-1.6,3.9-2.5,8.1-2.5,12.4v47.5l16.8,5.6V79.4
			c0.9,0.4,1.8,0.9,2.7,1.2c3.9,1.7,8.2,2.6,12.4,2.6c4.3,0,8.5-0.9,12.4-2.6c3.8-1.6,7.2-3.8,10.2-6.8c2.9-2.9,5.1-6.3,6.8-10.1
			c1.7-3.9,2.5-8.2,2.5-12.4C148.6,47,147.8,42.8,146.2,38.9L146.2,38.9z M116.7,66.4c-8.3,0-15.1-6.8-15.1-15.1s6.8-15.1,15.1-15.1
			s15.1,6.8,15.1,15.1S125,66.4,116.7,66.4z"/>
		<path id="path321615" class="st0" d="M195.9,82.8c4.4,0,8.6-0.9,12.6-2.7c3.9-1.7,7.4-4.1,10.3-7.2L207,61.7
			c-2.9,3.1-6.8,4.8-11.1,4.8c-5.5,0-10.3-2.9-13-7.2h44.4v-8.2c0-8.4-3.2-16.3-9.2-22.3c-5.9-5.9-13.9-9.3-22.3-9.3
			c-8.5,0-16.3,3.4-22.4,9.3c-5.9,5.9-9.2,13.9-9.2,22.3s3.2,16.3,9.2,22.3C179.6,79.4,187.4,82.8,195.9,82.8L195.9,82.8z M183,43.2
			c2.7-4.4,7.5-7.3,13-7.3c5.4,0,10.2,2.9,13,7.3H183z"/>
		<path id="path321617" class="st0" d="M294.9,29.3c-5.4-5.3-12.4-8.2-19.9-8.2c-4,0-7.8,0.8-11.3,2.3v-4.1h-16.8v27.4
			c-0.1,0.9-0.1,1.7-0.1,2.6h0.1v33h16.8V47.6c0.8-5.5,5.5-9.7,11.3-9.7c6.3,0,11.4,5.1,11.4,11.4v33h16.8v-33
			C303.2,41.7,300.2,34.7,294.9,29.3L294.9,29.3z"/>
		<path id="path321619" class="st0" d="M355.3,83.1c4.3,0,8.5-0.9,12.4-2.5c3.8-1.7,7.3-3.9,10.2-6.8c2.9-3,5.1-6.4,6.8-10.2
			c1.7-3.9,2.5-8.2,2.5-12.4c0-4.4-0.8-8.5-2.5-12.4c-1.7-3.8-3.9-7.3-6.8-10.2c-3-2.9-6.4-5.1-10.2-6.8c-3.9-1.7-8.2-2.5-12.4-2.5
			s-8.5,0.8-12.4,2.5c-3.8,1.7-7.2,3.9-10.2,6.8c-2.9,3-5.1,6.4-6.8,10.2c-1.6,3.9-2.5,8.1-2.5,12.4c0,4.3,0.9,8.5,2.5,12.4
			c1.7,3.8,3.9,7.2,6.8,10.2c3,2.9,6.4,5.1,10.2,6.8C346.8,82.2,351.1,83.1,355.3,83.1z M355.3,36.1c8.3,0,15.1,6.8,15.1,15.1
			s-6.8,15.1-15.1,15.1c-8.3,0-15.1-6.8-15.1-15.1S347,36.1,355.3,36.1z"/>
		<path id="path321621" class="st0" d="M444.5,35.7V20h-17.8V0L410,5.6V49c0,4.7,0.9,9.2,2.7,13.4c1.7,4.1,4.3,7.8,7.4,11
			c3.1,3.2,6.8,5.7,11,7.5c4.3,1.8,8.8,2.7,13.5,2.7V66.8c-9.8,0-17.8-7.9-17.8-17.8V35.7L444.5,35.7z"/>
		<path id="path321623" class="st0" d="M488.6,82.8c4.4,0,8.6-0.9,12.6-2.7c3.9-1.7,7.4-4.1,10.3-7.2l-11.9-11.2
			c-2.9,3.1-6.8,4.8-11.1,4.8c-5.5,0-10.3-2.9-13-7.2H520v-8.2c0-8.4-3.2-16.3-9.2-22.3c-5.9-5.9-13.9-9.3-22.3-9.3
			c-8.5,0-16.3,3.4-22.4,9.3c-5.9,5.9-9.2,13.9-9.2,22.3s3.2,16.3,9.2,22.3C472.2,79.4,480.1,82.8,488.6,82.8L488.6,82.8z
			 M475.6,43.2c2.7-4.4,7.5-7.3,13-7.3c5.4,0,10.2,2.9,13,7.3H475.6z"/>
	</g>
	<g id="tagline">
	</g>
</g>
</svg>
