<?xml version="1.0" encoding="utf-8"?>
<!-- Generator: Adobe Illustrator 21.0.2, SVG Export Plug-In . SVG Version: 6.00 Build 0)  -->
<svg version="1.1"
	 id="svg909185" xmlns:cc="http://creativecommons.org/ns#" xmlns:dc="http://purl.org/dc/elements/1.1/" xmlns:rdf="http://www.w3.org/1999/02/22-rdf-syntax-ns#" xmlns:svg="http://www.w3.org/2000/svg"
	 xmlns="http://www.w3.org/2000/svg" xmlns:xlink="http://www.w3.org/1999/xlink" x="0px" y="0px" viewBox="0 0 369.9 72.4"
	 style="enable-background:new 0 0 369.9 72.4;" xml:space="preserve">
<style type="text/css">
	.st0{fill:#FBB62B;}
</style>
<g id="logo-group">
	<g id="title">
		<path id="path909193" class="st0" d="M40.5,3.4c-3.6-2.1-7.9-3.2-13.1-3.2c-4.8,0-9.1,0.8-12.9,2.2s-6.8,3.6-9,6.4
			c-2.2,2.8-3.2,6.1-3.2,9.9c0,5.5,2.1,10.1,6.4,13.7c4.2,3.6,10.1,5.8,17.6,6.5c5.4,0.5,9.4,2.1,12.1,4.5c2.6,2.4,4,5.3,4,8.7
			c0,3.6-1.6,6.5-4.7,8.6c-3.1,2.1-6.9,3.1-11.4,3.1c-3.9,0-7.4-0.8-10.5-2.4c-3.2-1.6-5.3-3.6-6.4-5.9c-0.4-0.9-1.1-1.7-2-2.3
			c-0.9-0.5-1.8-0.9-2.7-0.9c-0.4,0-0.7,0.1-0.9,0.1c-1.2,0.3-2.1,0.7-2.7,1.4c-0.7,0.7-1,1.4-1,2.3c0,0.5,0.1,1.1,0.4,1.8
			c1.8,4.3,5,7.7,9.8,10.3c4.8,2.7,10.1,4,15.9,4c4.4,0,8.5-0.7,12.4-2.3c3.9-1.5,7-3.9,9.4-6.9s3.5-6.8,3.5-11.2
			c0-5.9-2-10.7-5.9-14.3S36,31.8,28.8,31c-6.5-0.6-11-2-13.5-4.1c-2.5-2.1-3.8-4.7-3.8-7.8c0-3.3,1.3-5.9,4.2-7.7
			c2.8-1.8,6.5-2.7,11.1-2.7c3.7,0,6.7,0.7,9.2,2.2s4.5,3.4,6.1,6.1c0.4,0.8,1,1.4,1.8,1.9c0.7,0.5,1.6,0.6,2.5,0.6s1.6-0.2,2.3-0.6
			c1.2-0.8,1.8-1.9,1.8-3.2c0-1-0.4-2.1-1.1-3.2C47,8.5,44,5.6,40.5,3.4L40.5,3.4z"/>
		<path id="path909195" class="st0" d="M106.5,72.4c4,0,8-0.6,11.8-2c3.7-1.3,7.1-3.1,10.2-5.5c1-0.7,1.5-1.7,1.7-3
			c0.2-1.3-0.1-2.3-0.9-3.3c-0.7-1-1.7-1.5-3-1.7c-1.3-0.2-2.3,0.1-3.3,0.9c-4.9,3.7-10.3,5.6-16.5,5.6c-7.6,0-14-2.7-19.3-8
			C82,50,79.4,43.6,79.4,36.2s2.6-14,7.9-19.3C92.6,11.6,99,9,106.5,9c6.2,0,11.8,1.9,16.7,5.8c1,0.8,2.2,1.1,3.3,0.9
			c1.3-0.1,2.2-0.7,3.1-1.7c0.7-0.9,1.1-2.1,0.9-3.3c-0.2-1.2-0.7-2.2-1.7-3c-3.1-2.4-6.6-4.3-10.3-5.6c-3.9-1.4-7.9-2.1-12-2.1
			c-4.9,0-9.6,1-14.1,2.9c-4.3,1.8-8.2,4.4-11.5,7.7s-5.9,7.1-7.7,11.4c-1.9,4.5-2.8,9.2-2.8,14.1s0.9,9.6,2.8,14
			c1.8,4.4,4.4,8.2,7.7,11.5c3.3,3.3,7.2,5.9,11.5,7.7C96.9,71.4,101.6,72.4,106.5,72.4L106.5,72.4z"/>
		<path id="path909197" class="st0" d="M195.2,71.5c0.9,0,1.7-0.3,2.5-0.8c1-0.7,1.6-1.7,1.9-3c0.2-1.2,0-2.3-0.7-3.3L184.1,43
			c3.2-1.4,5.8-3.3,8-5.9c3.5-4,5.2-8.8,5.2-14.1c0-6-2.2-11.2-6.4-15.5c-4.3-4.2-9.4-6.4-15.5-6.4h-17.6c-1.3,0-2.3,0.5-3.1,1.4
			s-1.3,1.9-1.3,3.1V67c0,1.3,0.4,2.3,1.3,3.1c0.9,0.9,1.9,1.4,3.1,1.4c1.3,0,2.3-0.4,3.1-1.4c0.9-0.8,1.3-1.9,1.3-3.1V10.1h13
			c3.5,0,6.6,1.3,9.1,3.8s3.8,5.5,3.8,9.1c0,3.1-1.1,5.9-3.1,8.3s-4.5,3.8-7.5,4.3l-1.6,0.2c-1.7,0.2-3,1.1-3.6,2.6
			c-0.8,1.5-0.6,3.1,0.4,4.4l18.6,26.8C192.4,70.8,193.6,71.5,195.2,71.5z"/>
		<path id="path909199" class="st0" d="M220.3,2.4c-0.9,0.9-1.4,2-1.4,3.3v60.9c0,1.3,0.4,2.4,1.4,3.3c0.9,0.9,2,1.3,3.3,1.3
			c1.4,0,2.4-0.4,3.3-1.3c0.9-0.9,1.4-2,1.4-3.3V5.8c0-1.4-0.4-2.4-1.4-3.3c-0.9-0.9-2-1.4-3.3-1.4C222.2,1.1,221.2,1.5,220.3,2.4z"
			/>
		<path id="path909201" class="st0" d="M263.1,70c0.9-0.9,1.4-2,1.4-3.3V47h13.3c4.4,0,8.4-0.9,11.9-2.9c3.5-1.9,6.2-4.6,8.2-8
			c2-3.4,3-7.3,3-11.7c0-4.5-1-8.5-3-12.1c-2-3.5-4.7-6.3-8.2-8.3s-7.5-3-11.9-3h-18c-1.4,0-2.4,0.5-3.3,1.4c-0.9,0.9-1.4,2-1.4,3.3
			v60.9c0,1.3,0.4,2.4,1.4,3.3c0.9,0.9,2,1.3,3.3,1.3C261.1,71.4,262.2,70.9,263.1,70z M287.8,34.5c-2.7,2.6-6,3.9-10.1,3.9h-13.3
			V9.7h13.3c4,0,7.4,1.4,10.1,4.1c2.6,2.8,4,6.3,4,10.5C291.8,28.5,290.5,31.9,287.8,34.5z"/>
		<path id="path909203" class="st0" d="M368.7,2.3c-0.8-0.8-1.8-1.3-3.1-1.3h-48.2c-1.3,0-2.3,0.4-3.2,1.3c-0.8,0.8-1.2,1.8-1.2,3.1
			c0,1.3,0.4,2.3,1.2,3.1c0.8,0.8,1.9,1.2,3.2,1.2h19.4v57c0,1.3,0.4,2.4,1.4,3.3c0.9,0.9,2,1.3,3.3,1.3c1.3,0,2.4-0.4,3.3-1.3
			c0.9-0.9,1.4-2,1.4-3.3v-57h19.3c1.3,0,2.3-0.4,3.1-1.2c0.8-0.8,1.3-1.9,1.3-3.1C369.9,4.1,369.5,3.1,368.7,2.3z"/>
	</g>
	<g id="tagline">
	</g>
</g>
</svg>
