<?xml version="1.0" encoding="utf-8"?>
<!-- Generator: Adobe Illustrator 21.0.2, SVG Export Plug-In . SVG Version: 6.00 Build 0)  -->
<svg version="1.1"
	 id="svg263052" xmlns:cc="http://creativecommons.org/ns#" xmlns:dc="http://purl.org/dc/elements/1.1/" xmlns:rdf="http://www.w3.org/1999/02/22-rdf-syntax-ns#" xmlns:svg="http://www.w3.org/2000/svg"
	 xmlns="http://www.w3.org/2000/svg" xmlns:xlink="http://www.w3.org/1999/xlink" x="0px" y="0px" viewBox="0 0 686.7 122.6"
	 style="enable-background:new 0 0 686.7 122.6;" xml:space="preserve">
<style type="text/css">
	.st0{fill:#1A8BE8;}
</style>
<g id="logo-group">
	<g id="title">
		<path id="path263060" class="st0" d="M28.8,122.6c16,0,26.7-10.7,26.7-24.7c0-29-39.8-24.3-39.8-40.9c0-6.2,4.7-10.5,11.7-10.5
			c7.4,0,11.4,4.8,11.9,11.6c0.2,1.4,1,2.2,2.4,2.2h10.2c1.7,0,2.2-1.2,2.2-2.4c-0.5-13.5-8.6-25.4-27.1-25.4
			c-15.5,0-26,10.3-26,24.1c0,28.3,39.7,23.6,39.7,41c0,6.2-4.1,10.7-12.1,10.7c-9,0-13.1-4.8-13.8-13.6c-0.2-1.7-1.2-2.2-2.4-2.2
			h-10c-1.9,0-2.4,1.2-2.4,2.6C0.5,110.4,10.9,122.6,28.8,122.6L28.8,122.6z"/>
		<path id="path263062" class="st0" d="M100.3,122.5c15.5,0,26.4-10.7,27.3-26.7c0-1.4-0.9-2.2-2.2-2.2h-10.2
			c-1.4,0-2.2,0.7-2.4,2.2c-0.5,7.6-5.2,12.8-12.2,12.8c-7.9,0-12.6-5.5-12.6-13.5v-9h12.8c16.4,0,27.4-10.9,27.4-26
			c0-15.9-11.4-27.4-27.6-27.3c-16.6,0-27.3,11.4-27.4,27.8v33.8C73.1,111.2,84.1,122.5,100.3,122.5L100.3,122.5z M87.9,72.6V60.4
			c0-8.3,4.5-13.6,12.6-13.6c7.9,0,12.8,5.3,12.8,13.6c0,7.2-4.7,12.2-12.6,12.2H87.9z"/>
		<path id="path263064" class="st0" d="M184.9,107.3H183c-8.8,0-13.3-5.5-13.3-16.4V47.9H183c1.4,0,2.2-0.9,2.2-2.2v-9
			c0-1.4-0.9-2.2-2.2-2.2h-13.3V12.2c0-1.6-0.9-2.4-2.2-2.4h-10c-1.6,0-2.4,0.9-2.4,2.4v22.2h-9.7c-1.4,0-2.2,0.9-2.2,2.2v9
			c0,1.4,0.9,2.2,2.2,2.2h9.7v42.8c0,19,10.2,30.5,27.3,30.5h2.6c1.6,0,2.4-0.9,2.4-2.2v-9.5C187.3,108.1,186.4,107.3,184.9,107.3
			L184.9,107.3z"/>
		<path id="path263066" class="st0" d="M255.4,0h-53c-1.4,0-2.2,0.9-2.2,2.2v9.8c0,1.6,0.9,2.4,2.2,2.4h18.8v103.8
			c0,1.6,0.9,2.4,2.2,2.4h10.9c1.6,0,2.4-0.9,2.4-2.4V14.5h18.6c1.6,0,2.4-0.9,2.4-2.4V2.2C257.8,0.9,256.9,0,255.4,0z"/>
		<path id="path263068" class="st0" d="M278.6,23.6c5,0,9-4.1,9-8.8c0-5.2-4-9-9-9c-5.2,0-8.8,3.8-8.8,9
			C269.8,19.8,273.5,23.6,278.6,23.6z M273.6,120.7h10c1.6,0,2.4-0.9,2.4-2.4V36.7c0-1.4-0.9-2.2-2.4-2.2h-10
			c-1.6,0-2.4,0.9-2.4,2.2v81.6C271.2,119.9,272.1,120.7,273.6,120.7z"/>
		<path id="path263070" class="st0" d="M373.3,32.6c-8.1,0-14.7,4.3-18.6,10.5c-4-6.2-10.7-10.5-18.6-10.5c-15.7,0-26,11.7-26,28.1
			v57.6c0,1.6,0.9,2.4,2.4,2.4h9.8c1.6,0,2.4-0.9,2.4-2.4V60.2c0-8.1,4.1-13.5,11.4-13.5c7.2,0,11.2,5.3,11.2,13.5v58.1
			c0,1.6,0.9,2.4,2.4,2.4h10c1.4,0,2.2-0.9,2.2-2.4V60.2c0-8.1,4.1-13.5,11.4-13.5s11.2,5.3,11.2,13.5v58.1c0,1.6,0.9,2.4,2.4,2.4
			h10c1.4,0,2.2-0.9,2.2-2.4V60.7C399.2,44.3,389,32.6,373.3,32.6z"/>
		<path id="path263072" class="st0" d="M448.5,122.5c15.5,0,26.4-10.7,27.3-26.7c0-1.4-0.9-2.2-2.2-2.2h-10.2
			c-1.4,0-2.2,0.7-2.4,2.2c-0.5,7.6-5.2,12.8-12.2,12.8c-7.9,0-12.6-5.5-12.6-13.5v-9h12.8c16.4,0,27.4-10.9,27.4-26
			c0-15.9-11.4-27.4-27.6-27.3c-16.6,0-27.3,11.4-27.4,27.8v33.8C421.3,111.2,432.3,122.5,448.5,122.5z M436.1,72.6V60.4
			c0-8.3,4.5-13.6,12.6-13.6c7.9,0,12.8,5.3,12.8,13.6c0,7.2-4.7,12.2-12.6,12.2H436.1z"/>
		<path id="path263074" class="st0" d="M523.4,122.6c16.7,0,27.6-11.7,27.6-28.1V60.7c0-16.4-10.9-28.1-27.6-28.1
			c-16.6,0-27.6,11.7-27.6,28.1v33.8C495.8,110.9,506.9,122.6,523.4,122.6z M523.4,108.7c-7.9,0-12.6-5.5-12.6-13.6V60.2
			c0-8.1,4.7-13.6,12.6-13.6s12.8,5.5,12.8,13.6V95C536.2,103.1,531.4,108.7,523.4,108.7z"/>
		<path id="path263076" class="st0" d="M573.5,34.5c-1.6,0-2.4,0.9-2.4,2.4v57.6c0,16.4,10.9,28.1,26.9,28.1s26.9-11.7,26.9-28.1
			V36.9c0-1.6-0.9-2.4-2.4-2.4h-10c-1.6,0-2.4,0.9-2.4,2.4V95c0,8.1-4.5,13.6-12.1,13.6c-7.6,0-12.1-5.5-12.1-13.6V36.9
			c0-1.6-0.9-2.4-2.4-2.4H573.5z"/>
		<path id="path263078" class="st0" d="M684.2,107.3h-1.9c-8.8,0-13.3-5.5-13.3-16.4V47.9h13.3c1.4,0,2.2-0.9,2.2-2.2v-9
			c0-1.4-0.9-2.2-2.2-2.2h-13.3V12.2c0-1.6-0.9-2.4-2.2-2.4h-10c-1.6,0-2.4,0.9-2.4,2.4v22.2h-9.7c-1.4,0-2.2,0.9-2.2,2.2v9
			c0,1.4,0.9,2.2,2.2,2.2h9.7v42.8c0,19,10.2,30.5,27.3,30.5h2.6c1.6,0,2.4-0.9,2.4-2.2v-9.5C686.7,108.1,685.8,107.3,684.2,107.3
			L684.2,107.3z"/>
	</g>
	<g id="tagline">
	</g>
</g>
</svg>
