<?xml version="1.0" encoding="utf-8"?>
<!-- Generator: Adobe Illustrator 21.0.2, SVG Export Plug-In . SVG Version: 6.00 Build 0)  -->
<svg version="1.1"
	 id="svg159898" xmlns:cc="http://creativecommons.org/ns#" xmlns:dc="http://purl.org/dc/elements/1.1/" xmlns:rdf="http://www.w3.org/1999/02/22-rdf-syntax-ns#" xmlns:svg="http://www.w3.org/2000/svg"
	 xmlns="http://www.w3.org/2000/svg" xmlns:xlink="http://www.w3.org/1999/xlink" x="0px" y="0px" viewBox="0 0 636 150.2"
	 style="enable-background:new 0 0 636 150.2;" xml:space="preserve">
<style type="text/css">
	.st0{fill:#E9D66C;}
</style>
<g id="logo-group">
	<g id="title">
		<path id="path159906" class="st0" d="M85.8,89.6C90.9,63.1,68.3,55.2,54,50.8c-10-3-16.6-5.6-15.3-13.1c1.3-6.3,6.6-10.3,15-10.3
			c8.9,0,18.1,3.1,25.2,7.7c1.4,0.9,2.7,0.8,3.8-0.5l10.9-14.1c1.1-1.4,0.9-2.8-0.5-3.8C82.3,8.8,71.4,4.8,56.5,4.8
			c-21.1,0-38.5,8.4-42.2,30.3c-3.8,22.2,11.4,32.5,28.1,37.4C54,75.8,62,78.9,60.8,86.8c-1.3,7.3-9.2,10.9-18.3,10.9
			c-9.7,0-18-3.6-26.6-10.3c-1.4-1.1-2.8-1.1-3.9,0.3L0.7,101.6c-1.1,1.4-0.9,2.8,0.3,3.9c10.6,9.4,22.4,15.2,38.8,15.2
			C60.1,120.7,80.8,113.9,85.8,89.6L85.8,89.6z"/>
		<path id="path159908" class="st0" d="M146.3,59.1c1.7,0,2.7-0.8,3-2.5l2.5-14.4c0.3-1.7-0.6-3-2.5-3h-12.5l0.9-18.6
			c0.2-1.7-0.8-2.8-2.7-2.8h-15.3c-1.7,0-2.7,0.9-3,2.5L105,87.4c-4.1,22.8,7,33.3,24.4,33.3c2.7,0,5.6-0.3,8-0.8
			c1.6-0.2,2.3-1.1,2.7-2.7l2.5-14.5c0.5-2-0.6-2.8-2.5-2.7c-1.6,0-3,0-4.2,0c-6.4,0-8.9-3.8-7.7-10.8l5.3-30.2L146.3,59.1z"/>
		<path id="path159910" class="st0" d="M179.1,118.6c1.6,0,2.5-0.9,2.8-2.5l10.2-57.7c2.7-1.1,6.1-1.9,10.2-1.9
			c3.3,0,6.4,0.3,9.1,0.8c1.7,0.2,3-0.6,3.1-2.3l2.8-15.3c0.3-1.6-0.5-2.8-2.2-3.1c-4.5-0.9-8.8-1.4-13-1.4
			c-9.8,0-19.9,2.3-28.9,6.6c-1.3,0.6-2,1.6-2.3,3l-12.3,71c-0.3,1.7,0.6,3,2.5,3H179.1z"/>
		<path id="path159912" class="st0" d="M241.6,118.6c1.7,0,2.7-0.9,3-2.5l13.4-76c0.3-1.7-0.6-2.8-2.5-2.8h-18.1
			c-1.6,0-2.7,0.8-2.8,2.3l-13.4,76c-0.3,1.7,0.6,3,2.3,3H241.6z M263.2,14.7C264.8,6.3,259.8,0,251.8,0c-7.2,0-12.5,4.5-13.8,11.4
			c-1.6,8.1,3.4,14.5,11.4,14.5C256.5,25.9,261.9,21.1,263.2,14.7z"/>
		<path id="path159914" class="st0" d="M288.4,118.6c1.7,0,2.7-0.8,3-2.5l10.3-58.6c2.3-1.1,6.3-1.9,10-1.9c8.3,0,11.7,4.5,9.8,14.4
			l-7.8,45.6c-0.2,1.7,0.8,3,2.5,3h18c1.7,0,2.7-0.9,3-2.5l7.8-43.8c3.9-22.2-6.7-37.2-30.3-37.2c-10.2,0-21.9,2.5-31.7,6.3
			c-1.4,0.6-2,1.6-2.3,2.8l-12.8,71.4c-0.3,1.7,0.6,3,2.5,3H288.4z"/>
		<path id="path159916" class="st0" d="M428.4,111l11.4-65.8c0.3-1.6-0.3-2.7-1.7-3.4c-8.3-3.8-19.1-6.6-31.4-6.6
			c-20.2,0-36.7,9.7-40.6,31.7l-2.7,14.8c-3.8,20.6,7,34.7,27.4,34.7c4.4,0,9.5-0.9,13.9-2.3c-2,10.6-7.7,15.2-17,15.2
			c-7,0-13-2-17.4-4.8c-1.4-1.1-2.7-0.9-3.8,0.5l-9.5,12.2c-1.1,1.4-1.1,2.7,0.3,3.8c7.3,6.3,15.6,9.4,28.3,9.4
			C412.8,150.2,423.6,139,428.4,111L428.4,111z M387,83.8l2.8-16.1c1.4-8.1,7-11.9,14.8-11.9c3.6,0,7.3,0.6,9.4,1.9l-6.1,35.6
			c-2.3,1.7-6.9,3-11.4,3C388.9,96.3,385.4,92.5,387,83.8L387,83.8z"/>
		<path id="path159918" class="st0" d="M471.2,118.6c1.7,0,2.7-0.9,3-2.5l13.4-76c0.3-1.7-0.6-2.8-2.5-2.8H467
			c-1.6,0-2.7,0.8-2.8,2.3l-13.4,76c-0.3,1.7,0.6,3,2.3,3H471.2z M492.8,14.7C494.3,6.3,489.3,0,481.4,0c-7.2,0-12.5,4.5-13.8,11.4
			C466,19.5,471,25.9,479,25.9C486,25.9,491.5,21.1,492.8,14.7z"/>
		<path id="path159920" class="st0" d="M553.5,25.9c1.4,0.2,2.3-0.5,2.5-2.3l2.7-14.8c0.3-1.9-0.5-3-2.2-3.3
			c-2.7-0.5-6.3-0.6-9.8-0.6c-19.4,0-31.1,10-34.5,29.4l-14.5,81.4c-0.3,1.7,0.6,3,2.5,3h18.1c1.7,0,2.7-0.9,2.8-2.5l10.2-56.7h14.4
			c1.7,0,2.7-0.9,3-2.5l2.5-14.4c0.2-1.9-0.8-3-2.5-3h-13.8l0.5-3.1c1.4-7.3,5.2-10.9,11.7-10.9C549,25.5,551.6,25.6,553.5,25.9
			L553.5,25.9z"/>
		<path id="path159922" class="st0" d="M603,93.8c-2.3,1.4-6.3,2.7-10.5,2.7c-7,0-10.9-3.9-9.2-13.1l7.8-43.1
			c0.3-1.7-0.6-2.8-2.5-2.8h-18c-1.7,0-2.7,0.8-2.8,2.3l-7.5,41.4c-3.6,21.1,6.9,35.3,26.1,35.3c4.7,0,9.1-0.9,13.3-2.3
			c-1.7,10.9-6.9,15.3-16.7,15.3c-6.9,0-12.5-2-16.7-5c-1.6-0.9-2.8-0.9-3.9,0.6l-9.7,12.3c-0.9,1.3-0.9,2.8,0.3,3.8
			c6.9,5.9,15.6,9.1,28.1,9.1c25.6,0,37.4-11.3,42.4-39.2L636,40.2c0.2-1.7-0.8-2.8-2.5-2.8h-18c-1.7,0-2.7,0.8-3,2.3L603,93.8z"/>
	</g>
	<g id="tagline">
	</g>
</g>
</svg>
