<?xml version="1.0" encoding="utf-8"?>
<!-- Generator: Adobe Illustrator 21.0.2, SVG Export Plug-In . SVG Version: 6.00 Build 0)  -->
<svg version="1.1"
	 id="svg433154" xmlns:cc="http://creativecommons.org/ns#" xmlns:dc="http://purl.org/dc/elements/1.1/" xmlns:rdf="http://www.w3.org/1999/02/22-rdf-syntax-ns#" xmlns:svg="http://www.w3.org/2000/svg"
	 xmlns="http://www.w3.org/2000/svg" xmlns:xlink="http://www.w3.org/1999/xlink" x="0px" y="0px" viewBox="0 0 604.7 126.8"
	 style="enable-background:new 0 0 604.7 126.8;" xml:space="preserve">
<style type="text/css">
	.st0{fill:#F58907;}
</style>
<g id="logo-group">
	<g id="title">
		<path id="path433162" class="st0" d="M42.5,111.2h-1.9c-9,0-13.5-5.6-13.5-16.7V50.8h13.5c1.4,0,2.3-0.9,2.3-2.3v-9.1
			c0-1.4-0.9-2.3-2.3-2.3H27V14.4c0-1.6-0.9-2.5-2.3-2.5H14.6c-1.6,0-2.5,0.9-2.5,2.5v22.7H2.3c-1.4,0-2.3,0.9-2.3,2.3v9.1
			c0,1.4,0.9,2.3,2.3,2.3h9.8v43.6c0,19.3,10.4,31.1,27.8,31.1h2.6c1.6,0,2.5-0.9,2.5-2.3v-9.7C45,112.1,44.1,111.2,42.5,111.2
			L42.5,111.2z"/>
		<path id="path433164" class="st0" d="M82.4,126.8c17,0,28.1-11.9,28.1-28.6V63.8c0-16.7-11.1-28.6-28.1-28.6
			c-16.9,0-28.1,11.9-28.1,28.6v34.4C54.3,114.9,65.6,126.8,82.4,126.8z M82.4,112.6c-8.1,0-12.8-5.6-12.8-13.9V63.2
			c0-8.3,4.7-13.9,12.8-13.9s13,5.6,13,13.9v35.5C95.4,107,90.5,112.6,82.4,112.6z"/>
		<path id="path433166" class="st0" d="M161.9,111.2H160c-9,0-13.5-5.6-13.5-16.7V50.8H160c1.4,0,2.3-0.9,2.3-2.3v-9.1
			c0-1.4-0.9-2.3-2.3-2.3h-13.5V14.4c0-1.6-0.9-2.5-2.3-2.5H134c-1.6,0-2.5,0.9-2.5,2.5v22.7h-9.8c-1.4,0-2.3,0.9-2.3,2.3v9.1
			c0,1.4,0.9,2.3,2.3,2.3h9.8v43.6c0,19.3,10.4,31.1,27.8,31.1h2.6c1.6,0,2.5-0.9,2.5-2.3v-9.7C164.4,112.1,163.5,111.2,161.9,111.2
			L161.9,111.2z"/>
		<path id="path433168" class="st0" d="M201.3,126.6c16.9,0,27.4-11.6,27.4-27.8V63.6c0-16.5-10.7-28.5-27.4-28.5
			c-15.6,0-26,10.9-27,26.2c0,1.4,0.9,2.5,2.3,2.5h10.2c1.6,0,2.3-0.5,2.5-2.1c0.5-7.2,4.6-12.1,11.9-12.1c7.9,0,12.6,5.4,12.6,13.3
			v9.7h-13.2c-16.5,0-27.8,11.2-27.8,25.8C172.8,114.9,184.2,126.6,201.3,126.6L201.3,126.6z M201.1,112.2
			c-8.3,0-13.2-5.4-13.2-13.9c0-6.9,4.9-12.3,13.2-12.3h12.6v12.8C213.7,107,209.2,112.2,201.1,112.2L201.1,112.2z"/>
		<path id="path433170" class="st0" d="M247.6,124.9h10.2c1.6,0,2.5-0.9,2.5-2.5V4.2c0-1.4-0.9-2.3-2.5-2.3h-10.2
			c-1.6,0-2.5,0.9-2.5,2.3v118.2C245.1,124,246,124.9,247.6,124.9L247.6,124.9z"/>
		<path id="path433172" class="st0" d="M307.4,126.8c17.9,0,29.7-13.5,30.4-34.8c0-1.6-0.9-2.5-2.3-2.5h-11.2
			c-1.4,0-2.3,0.7-2.3,2.3c-0.4,12.8-5.8,20-14.8,20c-8.8,0-13.9-6-13.9-15.8V30.7c0-9.8,5.1-15.8,13.9-15.8
			c8.1,0,13.5,6.5,13.9,18.8c0,1.6,0.9,2.3,2.3,2.3h11.2c1.6,0,2.3-0.9,2.3-2.3C336.3,13.2,324.6,0,307.4,0c-17.9,0-30,12.6-30,31.6
			v63.6C277.3,114.2,289.4,126.8,307.4,126.8z"/>
		<path id="path433174" class="st0" d="M352.6,124.9h10.2c1.6,0,2.5-0.9,2.5-2.5V4.2c0-1.4-0.9-2.3-2.5-2.3h-10.2
			c-1.6,0-2.5,0.9-2.5,2.3v118.2C350.1,124,351,124.9,352.6,124.9L352.6,124.9z"/>
		<path id="path433176" class="st0" d="M392.3,26c5.1,0,9.1-4.2,9.1-9c0-5.3-4-9.1-9.1-9.1c-5.3,0-9,3.9-9,9.1
			C383.3,22.1,387,26,392.3,26z M387.2,124.9h10.2c1.6,0,2.5-0.9,2.5-2.5V39.3c0-1.4-0.9-2.3-2.5-2.3h-10.2c-1.6,0-2.5,0.9-2.5,2.3
			v83.1C384.7,124,385.6,124.9,387.2,124.9z"/>
		<path id="path433178" class="st0" d="M442.1,126.8c16,0,26.7-11.4,27.8-27.9c0-1.8-0.9-2.6-2.3-2.6H457c-1.4,0-2.1,0.7-2.3,2.5
			c-0.7,8.6-5.4,13.7-12.8,13.7c-7.9,0-12.6-5.4-12.6-13.7V63.2c0-8.3,4.7-13.7,12.5-13.7c7.2,0,11.6,4.6,12.3,12.5
			c0.2,1.6,1.1,2.3,2.5,2.3h10.4c1.6,0,2.5-0.9,2.3-2.3c-1.1-16-11.6-26.9-27.4-26.9c-16.5,0-27.6,11.9-27.6,28.6v34.4
			C414.2,114.9,425.4,126.8,442.1,126.8z"/>
		<path id="path433180" class="st0" d="M519.8,75.5l17.4-35.7c0.7-1.8-0.4-2.8-2.1-2.8h-10.9c-1.2,0-2.1,0.5-2.8,1.8l-16,33.7h-8.4
			V4.2c0-1.4-0.9-2.3-2.5-2.3h-10.2c-1.6,0-2.5,0.9-2.5,2.3v118.2c0,1.6,0.9,2.5,2.5,2.5h10.2c1.6,0,2.5-0.9,2.5-2.5V86.8h10.5
			c7.9,0,13.3,5.1,13.3,13v22.7c0,1.6,0.9,2.5,2.3,2.5h10.4c1.4,0,2.3-0.9,2.3-2.5v-22.1C535.8,88.5,529.4,79.4,519.8,75.5
			L519.8,75.5z"/>
		<path id="path433182" class="st0" d="M577.5,126.8c16.3,0,27.2-10.9,27.2-25.1c0-29.5-40.6-24.8-40.6-41.6
			c0-6.3,4.7-10.7,11.9-10.7c7.6,0,11.6,4.9,12.1,11.8c0.2,1.4,1.1,2.3,2.5,2.3H601c1.8,0,2.3-1.2,2.3-2.5
			c-0.5-13.7-8.8-25.8-27.6-25.8c-15.8,0-26.5,10.5-26.5,24.6c0,28.8,40.4,24.1,40.4,41.8c0,6.3-4.2,10.9-12.3,10.9
			c-9.1,0-13.3-4.9-14.1-13.9c-0.2-1.8-1.2-2.3-2.5-2.3h-10.2c-1.9,0-2.5,1.2-2.5,2.6C548.6,114.3,559.2,126.8,577.5,126.8
			L577.5,126.8z"/>
	</g>
	<g id="tagline">
	</g>
</g>
</svg>
